<?xml version="1.0" standalone="no"?>
<!DOCTYPE svg PUBLIC "-//W3C//DTD SVG 1.1//EN" "http://www.w3.org/Graphics/SVG/1.1/DTD/svg11.dtd" >
<svg xmlns="http://www.w3.org/2000/svg">
<metadata></metadata>
<defs>
<font id="tfarrowlightregular" horiz-adv-x="1574" >
<font-face units-per-em="2048" ascent="1638" descent="-410" />
<missing-glyph horiz-adv-x="368" />
<glyph horiz-adv-x="2048" />
<glyph horiz-adv-x="2048" />
<glyph unicode="&#xd;" horiz-adv-x="2048" />
<glyph unicode=" "  horiz-adv-x="368" />
<glyph unicode="&#x09;" horiz-adv-x="368" />
<glyph unicode="&#xa0;" horiz-adv-x="368" />
<glyph unicode="!" horiz-adv-x="430" d="M115 1196q0 108 18.5 160.5t65.5 52.5q49 0 65.5 -51.5t16.5 -161.5q0 -46 -31.5 -436.5t-50.5 -517.5q-19 127 -51.5 518t-32.5 436zM123 66q0 32 22.5 53.5t53.5 21.5t52 -21.5t21 -53.5q0 -31 -21 -52.5t-52 -21.5t-53.5 21.5t-22.5 52.5z" />
<glyph unicode="&#x22;" horiz-adv-x="468" d="M31 1335q0 31 21.5 52.5t53.5 21.5q31 0 52.5 -21.5t21.5 -52.5q0 -33 -32 -176t-42 -143q-9 0 -42 143.5t-33 175.5zM229 1335q0 31 22 52.5t54 21.5q31 0 52.5 -21.5t21.5 -52.5q0 -33 -32 -176t-42 -143t-43 143t-33 176z" />
<glyph unicode="#" horiz-adv-x="1181" d="M4 362l12 64h236l96 539h-235l14 63h233l62 365h113l-62 -365h309l64 365h112l-63 -365h231l-12 -63h-231l-97 -539h250l-14 -64h-246l-63 -362h-113l64 362h-312l-61 -362h-113l62 362h-236zM365 426h309l96 539h-309z" />
<glyph unicode="$" horiz-adv-x="882" d="M6 375q16 -48 34 -88t48 -85t66 -76.5t88.5 -53.5t113.5 -25q0 121 2 328.5t2 302.5q-176 81 -258 171t-82 218q0 141 96 232.5t240 109.5v123h68q0 -20 -1 -61t-1 -62q50 0 96.5 -8.5t77 -21t53.5 -25t34 -20.5l11 -9l11 -235q-9 47 -42 100t-98 100t-143 53 q0 -91 -2 -257.5t-2 -258.5q19 -10 58 -30q51 -26 76.5 -40t68 -40t64 -45.5t49.5 -51.5t41.5 -64t23.5 -75.5t10 -93.5q0 -87 -35 -162t-91.5 -124.5t-123.5 -80t-135 -36.5v-131h-68v129q-24 1 -48 4t-43.5 7t-41.5 11.5t-37 12.5t-36 15.5t-31.5 15.5t-30.5 17.5t-26 16 t-25.5 16.5l-22.5 15zM145 1112q0 -86 45 -139.5t170 -120.5q0 78 -2 240t-2 251q-62 -3 -106.5 -26.5t-65.5 -60t-30 -71.5t-9 -73zM418 657q0 -91 2 -291.5t2 -316.5q60 5 106 29.5t72.5 57t43.5 74t22.5 75.5t5.5 67q0 52 -11.5 92t-29 68.5t-52.5 55t-69 44.5t-92 45z " />
<glyph unicode="%" horiz-adv-x="1073" d="M23 1069q0 79 22.5 145t58.5 107.5t79.5 64.5t88.5 23q96 0 173 -92t77 -248q0 -159 -77.5 -251.5t-174.5 -92.5t-172 91.5t-75 252.5zM117 0q98 174 364.5 702t337.5 691h84q-100 -177 -365.5 -703.5t-336.5 -689.5h-84zM123 1071q-1 -149 39.5 -229t105.5 -80 q65 -2 108 76t44 227q1 140 -38.5 226.5t-102.5 86.5q-66 0 -110.5 -83t-45.5 -224zM498 326q0 79 22.5 145.5t59 108.5t80 65t88.5 23q96 0 172.5 -93t76.5 -249q0 -159 -77.5 -250.5t-174.5 -91.5t-172 90.5t-75 251.5zM598 328q-1 -149 39.5 -229.5t105.5 -80.5 q66 -2 109.5 76.5t44.5 227.5q1 140 -39.5 226.5t-103.5 86.5q-66 0 -110.5 -83t-45.5 -224z" />
<glyph unicode="&#x26;" horiz-adv-x="1089" d="M25 348q0 140 80 243.5t214 166.5q-6 7 -45 54.5t-55.5 70.5t-43.5 65.5t-38.5 80.5t-11.5 75q0 138 89.5 221.5t221.5 83.5q115 0 205 -77t90 -199q0 -42 -11 -80t-35 -70.5t-45.5 -56.5t-60 -51.5t-59 -41t-61.5 -38.5l327 -426q23 34 43.5 100t30 139.5t-14 132.5 t-83.5 70h178q16 -87 -12 -218.5t-101 -270.5q22 -29 72.5 -97.5t77 -103t61.5 -72t58 -49.5h-191q-24 36 -61 85.5t-62 80.5l-24 31q-74 -96 -160.5 -149.5t-166 -61.5t-154.5 15.5t-130 73.5t-88.5 121.5t-33.5 151.5zM154 387q0 -63 26.5 -122t70 -102t102.5 -65 t120.5 -18t127.5 46.5t120 121.5l-369 469q-32 -19 -62 -45t-63 -66.5t-53 -97.5t-20 -121zM236 1165q0 -68 43 -139.5t151 -194.5q90 56 138 122t48 165q0 31 -10.5 67.5t-32 75.5t-63 65t-94.5 26q-68 0 -124 -52t-56 -135z" />
<glyph unicode="'" horiz-adv-x="278" d="M31 1335q0 31 21.5 52.5t53.5 21.5q31 0 52.5 -21.5t21.5 -52.5q0 -33 -32 -176t-42 -143q-9 0 -42 143.5t-33 175.5z" />
<glyph unicode="(" horiz-adv-x="573" d="M0 692q0 129 20 245.5t48.5 199t73.5 158.5t79.5 120t83.5 88.5t68.5 58.5t50.5 35q-12 -22 -45.5 -72.5t-61.5 -94t-63 -121t-59 -159.5t-41 -202.5t-17 -255.5q0 -136 18 -262.5t44.5 -216t62.5 -174.5t64.5 -135t59 -100.5t38.5 -67.5q-30 23 -53.5 42.5t-70 68 t-82.5 98t-79 129.5t-71.5 166.5t-48 204.5t-19.5 247z" />
<glyph unicode=")" horiz-adv-x="573" d="M152 -264q8 17 38.5 67.5t59 100.5t64 135t62 174.5t44.5 216t18 262.5q0 135 -17 255.5t-41 202.5t-59 159.5t-62.5 121t-61 94t-45.5 72.5q23 -16 36.5 -25t49.5 -38.5t61 -56t63 -73.5t64.5 -94.5t56.5 -115.5t48.5 -140.5t31 -166.5t12.5 -195q0 -129 -19.5 -247 t-47.5 -204.5t-71 -166.5t-79 -129.5t-82.5 -98t-70 -68t-53.5 -42.5z" />
<glyph unicode="*" horiz-adv-x="595" d="M10 1223q6 19 25.5 28t38.5 4q22 -8 65.5 -30.5t75.5 -46.5q15 22 31 22q-12 36 -19.5 86t-7.5 74q0 19 14 34t35 15t36 -15t15 -34q0 -23 -9 -73.5t-23 -86.5q16 -3 28 -18q55 39 148 71q19 6 37 -2.5t24 -25.5q7 -22 -2.5 -41.5t-27.5 -24.5q-84 -22 -162 -22 q0 -23 -10 -35q32 -20 66.5 -56.5t47.5 -56.5q12 -15 9.5 -36.5t-17.5 -30.5q-20 -14 -40 -10.5t-30 18.5q-11 14 -34.5 61t-38.5 84q-8 -2 -33 -2q-17 -55 -74 -141q-11 -15 -31.5 -19.5t-35.5 7.5q-18 11 -21 33t8 36q11 16 48.5 53t68.5 58q-12 12 -12 33q-38 0 -87 10 t-73 18q-19 5 -29 23.5t-4 38.5z" />
<glyph unicode="+" horiz-adv-x="1052" d="M82 723v108h356v418h107v-418h354v-108h-354v-418h-107v418h-356z" />
<glyph unicode="," horiz-adv-x="278" d="M72 66q0 32 21.5 53.5t53.5 21.5q36 0 63.5 -29t27.5 -71q0 -104 -46 -191.5t-90 -101.5q-7 -3 -9.5 3t7.5 9q20 7 46 81.5t26 158.5q-8 -8 -25 -8q-32 0 -53.5 21.5t-21.5 52.5z" />
<glyph unicode="-" horiz-adv-x="468" d="M61 487v91h347v-91h-347z" />
<glyph unicode="." horiz-adv-x="278" d="M86 66q0 32 22 53.5t54 21.5q31 0 52.5 -21.5t21.5 -53.5q0 -31 -21.5 -52.5t-52.5 -21.5q-32 0 -54 21.5t-22 52.5z" />
<glyph unicode="/" horiz-adv-x="786" d="M-29 -240q82 170 341 810t321 823h117q-82 -178 -341.5 -818.5t-320.5 -814.5h-117z" />
<glyph unicode="0" horiz-adv-x="1155" d="M18 698q0 134 31 251t83 200t120 142.5t143 88.5t150 29q95 0 187.5 -46.5t169 -132.5t124 -225t47.5 -307q0 -140 -31.5 -259t-84 -201.5t-121 -140.5t-143 -85.5t-150.5 -27.5q-95 0 -186.5 45t-168 130t-123.5 225t-47 314zM178 702q-4 -318 95.5 -486.5t261.5 -168.5 q78 -1 144.5 38.5t118 117t81.5 202.5t32 285q3 299 -97.5 479.5t-258.5 182.5t-266 -175.5t-111 -474.5z" />
<glyph unicode="1" horiz-adv-x="428" d="M-6 1262l258 147v-1317q0 -63 63 -92h-256q64 29 64 92v1055q0 131 -129 115z" />
<glyph unicode="2" horiz-adv-x="856" d="M-80 0q18 28 152 174t281 313t198 248q76 119 76 256q0 135 -68 219t-192 84q-91 0 -173.5 -48t-170.5 -156q0 47 30 102.5t80 104t125.5 80.5t157.5 32t150.5 -36t111 -92t65.5 -120.5t23 -126.5q0 -95 -41 -187t-104 -165l-490 -561h553q26 1 43.5 10.5t24.5 19.5 t15.5 28.5t12.5 25.5l19 -205h-879z" />
<glyph unicode="3" horiz-adv-x="753" d="M-74 150q11 -5 50.5 -25.5t51 -25t40.5 -15t53.5 -13.5t54.5 -3q162 0 260.5 97t98.5 247q0 57 -20 106t-66 96t-133.5 80.5t-209.5 48.5q12 6 50 24.5t54.5 26.5t48 24.5t48.5 27t36.5 24t31.5 25.5q78 75 78 190q0 53 -24.5 99t-60.5 74t-73 43.5t-66 15.5 q-63 0 -111.5 -21.5t-101.5 -68.5q16 53 96 117.5t177 64.5q116 0 204.5 -88t88.5 -205q0 -197 -258 -309q95 -10 167 -51.5t110.5 -100t56.5 -117t18 -114.5q0 -61 -16 -121.5t-51 -118.5t-85.5 -102t-125.5 -71t-165 -27q-45 0 -82.5 6t-68 21t-51 27t-43 36t-32 36 t-30.5 40z" />
<glyph unicode="4" horiz-adv-x="968" d="M-66 512l791 926v-817h184v-109h-184v-420q0 -63 63 -92h-251q63 31 63 92v420h-666zM127 621h473v561z" />
<glyph unicode="5" horiz-adv-x="788" d="M-47 184q73 -57 129 -85.5t127 -28.5q159 0 259.5 104t100.5 254q0 144 -93.5 243t-225.5 99q-77 0 -118.5 -9.5t-94.5 -39.5l113 665h428q54 0 77 8.5t47 32.5l-20 -167h-481l-68 -406q33 16 72 25t61 9l23 1q55 0 113 -17.5t114 -53t99.5 -84.5t70.5 -118t27 -147 q0 -98 -30.5 -182t-78.5 -138t-107 -92.5t-114.5 -55.5t-103.5 -17q-75 0 -136.5 21.5t-99 56t-58 64t-32.5 58.5z" />
<glyph unicode="6" horiz-adv-x="1011" d="M20 621q0 133 44.5 274t118 254.5t176.5 186.5t210 73q96 0 169.5 -39.5t90.5 -85.5q-54 33 -92.5 44t-122.5 11q-89 0 -169 -56t-134 -143t-89 -185.5t-44 -190.5q106 154 342 154q67 0 138 -29t133 -83t101.5 -142t39.5 -193q0 -98 -30.5 -181.5t-78.5 -138.5 t-108.5 -93.5t-120.5 -56t-115 -17.5q-223 0 -341 171.5t-118 465.5zM160 473q0 -181 94 -297.5t221 -116.5q65 0 117 18.5t84.5 46t56.5 68t35 73.5t17 74.5t7 60t1 40.5q0 32 -7 76t-29 103t-55 107t-92.5 82t-134.5 34q-96 0 -169 -52t-109.5 -135t-36.5 -182z" />
<glyph unicode="7" horiz-adv-x="815" d="M-20 1190v203h821l-288 -819q-197 -568 -191 -590h-144q56 108 174.5 429.5t208.5 588.5l90 268h-563q-64 0 -108 -80z" />
<glyph unicode="8" horiz-adv-x="952" d="M18 381q0 71 23 129t66 102t93.5 76t116.5 60q-229 130 -229 337q0 139 104.5 231.5t256.5 92.5q55 0 115 -19.5t112.5 -54t86.5 -91.5t34 -124q0 -65 -20.5 -116.5t-60.5 -88t-78.5 -60t-94.5 -48.5q142 -54 235.5 -163t93.5 -255q0 -96 -37.5 -175t-99.5 -128.5 t-138 -76.5t-157 -27t-155 25t-134.5 72.5t-96.5 125.5t-36 176zM137 377q0 -78 26.5 -141.5t71.5 -103t100.5 -60.5t115.5 -21q119 0 203.5 77.5t84.5 219.5q0 45 -9.5 83t-23.5 66t-39.5 54t-48 43t-59 36.5t-63.5 31.5t-70 31t-70 32q-219 -114 -219 -348zM199 1120 q0 -50 18.5 -93t46 -72t71 -55.5t79.5 -42.5t86 -34q88 44 137 112.5t49 180.5q0 37 -13 75t-39.5 75t-75.5 60.5t-114 23.5q-100 0 -172.5 -61.5t-72.5 -168.5z" />
<glyph unicode="9" horiz-adv-x="1005" d="M12 924q0 99 30 182t78 137.5t109 93t120.5 55.5t115.5 17q111 0 200 -52t144.5 -140.5t85 -201t29.5 -239.5q0 -187 -74.5 -369.5t-205 -302.5t-277.5 -120q-100 0 -166 36.5t-88 88.5q43 -26 61 -34.5t54.5 -16t93.5 -7.5q95 0 177.5 57t136.5 145.5t87 187.5t41 192 q-101 -154 -340 -154q-53 0 -109.5 17.5t-110.5 55t-97 89t-69 125t-26 158.5zM152 956q0 -33 7 -77t28.5 -103.5t54.5 -107t92.5 -81.5t134.5 -34q96 0 169 52t109.5 135t36.5 182q0 180 -94 296.5t-221 116.5q-65 0 -117 -18.5t-84.5 -45.5t-56 -67.5t-34.5 -73 t-17.5 -74.5t-7 -60t-0.5 -40z" />
<glyph unicode=":" horiz-adv-x="339" d="M117 66q0 32 22 53.5t54 21.5q31 0 52 -21.5t21 -53.5q0 -31 -21 -52.5t-52 -21.5q-32 0 -54 21.5t-22 52.5zM117 864q0 32 22 54t54 22q31 0 52 -22t21 -54q0 -31 -21 -52t-52 -21q-32 0 -54 21t-22 52z" />
<glyph unicode=";" horiz-adv-x="339" d="M113 66q0 32 21.5 53.5t53.5 21.5q36 0 63.5 -29t27.5 -71q0 -104 -46 -191.5t-90 -101.5q-7 -3 -9.5 3t7.5 9q20 7 46 81.5t26 158.5q-8 -8 -25 -8q-32 0 -53.5 21.5t-21.5 52.5zM113 864q0 32 21.5 54t53.5 22q31 0 52.5 -22t21.5 -54q0 -31 -21.5 -52t-52.5 -21 q-32 0 -53.5 21t-21.5 52z" />
<glyph unicode="&#x3c;" horiz-adv-x="1052" d="M0 721v123q38 0 107 18.5t172 62.5t212.5 106.5t236 162.5t235.5 219q-15 -38 -51 -99.5t-108.5 -149.5t-160 -165t-214.5 -139t-263 -78q99 -16 193.5 -54t168.5 -86.5t141 -108t115.5 -116t87.5 -111t60 -93t31 -63.5q-134 143 -294 259.5t-292 180.5t-231 97.5 t-146 33.5z" />
<glyph unicode="=" horiz-adv-x="1052" d="M82 586v108h817v-108h-817zM82 862v107h817v-107h-817z" />
<glyph unicode="&#x3e;" horiz-adv-x="1052" d="M82 150q10 25 31 63.5t60 93t87.5 111t115.5 116t141 108t168.5 86.5t193.5 54q-136 16 -263 78t-214.5 139t-160 165t-108.5 149.5t-51 99.5q109 -119 235.5 -219t236 -162.5t212 -106.5t171.5 -62.5t107 -18.5v-123q-47 0 -145.5 -33.5t-231 -97.5t-292 -180.5 t-293.5 -259.5z" />
<glyph unicode="?" horiz-adv-x="716" d="M53 1305q55 61 120 87.5t157 26.5q42 0 80 -6.5t79.5 -25t71 -48.5t49 -81t19.5 -117q0 -29 -8 -63t-26.5 -76t-35 -75.5t-48 -85t-50 -80.5t-56 -87t-51.5 -80q-45 -70 -66 -121t-59 -182q-14 80 -14 213q0 56 13.5 96t47.5 92q228 354 228 463q0 84 -53 139.5 t-121 55.5q-31 0 -57 -4.5t-60.5 -22t-61.5 -47t-52.5 -85t-41.5 -130.5zM160 66q0 32 22.5 53.5t53.5 21.5t53 -21.5t22 -53.5q0 -31 -22 -52.5t-53 -21.5t-53.5 21.5t-22.5 52.5z" />
<glyph unicode="@" horiz-adv-x="1474" d="M-41 408q0 233 100.5 413.5t280 278.5t410.5 98q148 0 270 -42t201.5 -109.5t134.5 -156t78.5 -179t23.5 -181.5q0 -106 -19 -195t-50.5 -147t-68.5 -101t-77.5 -66t-72.5 -33.5t-58 -10.5q-102 0 -158.5 47t-62.5 93q-5 -5 -13.5 -12t-36.5 -26.5t-59 -34t-78.5 -26.5 t-95.5 -12q-75 0 -130.5 25t-87.5 69t-47 97.5t-15 117.5q0 76 21 154t66 153t108 133.5t154 94t197 35.5q30 0 67 -10.5t59 -20.5l22 -10l102 26l-116 -551q-27 -137 -27 -161q0 -138 129 -138q89 0 161.5 71t111 181t38.5 232q0 172 -76 308.5t-219 215t-329 78.5 q-116 0 -220.5 -28.5t-192.5 -86t-152 -139.5t-100 -194t-36 -244q0 -326 174.5 -522t466.5 -211v-37q-165 0 -307 52t-247 147.5t-164.5 241t-59.5 323.5zM449 334q0 -113 54.5 -183.5t162.5 -70.5q53 0 110 22t96 60l117 551q0 5 -1 12.5t-8.5 27.5t-21 35.5t-42 28 t-66.5 12.5q-161 0 -281 -144t-120 -351z" />
<glyph unicode="A" horiz-adv-x="1132" d="M-94 0q42 30 59 49t29 49l549 1315q501 -1237 534 -1315q14 -36 34 -57t69 -41h-299q55 21 55 63q0 16 -8 35q-121 293 -142 344h-565q-120 -284 -141 -344q-15 -35 -5 -59t48 -39h-217zM248 512h512q-53 129 -117 290.5t-101 257.5l-38 97q-137 -355 -256 -645z" />
<glyph unicode="B" horiz-adv-x="1064" d="M66 0q55 27 55 92v1208q0 63 -55 93h321q41 0 84 -4.5t100 -15.5t105.5 -33.5t91 -55.5t67.5 -85.5t25 -117.5q0 -64 -27 -120.5t-66 -92t-78 -61t-66 -36.5l-27 -11q8 -1 22.5 -3t55.5 -12t78 -25t83 -44.5t78.5 -67t55 -96t22.5 -127.5q0 -53 -13.5 -102t-51.5 -102 t-97.5 -92t-159.5 -64t-229 -25h-374zM250 74q39 -11 121 -11h14h45.5t55.5 2.5t65.5 8t66.5 17t67.5 28t59 43t49.5 59.5t31.5 79.5t12.5 102.5q0 76 -25 133.5t-63.5 90.5t-92.5 53.5t-104 27.5t-107 7l-196 -2v-639zM250 786q32 -4 100 -4h7h2q356 0 356 295 q0 59 -20.5 105t-51 72t-73 43t-80.5 22.5t-78 5.5q-52 0 -92.5 -1.5t-55.5 -3.5l-14 -1v-533z" />
<glyph unicode="C" horiz-adv-x="1404" d="M16 690q0 104 31 206t95.5 195t156 163.5t221.5 112.5t281 42q116 0 230 -33t255 -96q1 -19 3.5 -49.5t6.5 -95t6 -106t1 -38.5q-40 91 -97.5 160t-112 105t-116 58.5t-101.5 28t-77 5.5q-126 0 -231 -33.5t-178.5 -92t-124.5 -138t-75 -170.5t-24 -191 q0 -98 21.5 -191.5t69 -181t117 -153.5t173 -106t229.5 -40h14q32 0 53 0.5t65 7t78 18.5t81.5 37.5t86.5 61.5t82 94l79 129q1 0 -5 -64q-6 -67 -10 -135l-6 -69q-117 -77 -255.5 -112t-258.5 -35q-151 0 -290.5 52t-244 143t-167 224.5t-62.5 286.5z" />
<glyph unicode="D" horiz-adv-x="1390" d="M70 0q53 26 53 92v1208q0 64 -53 93h471q141 0 258 -29.5t195 -76t137.5 -110.5t92.5 -126t54 -129t27 -114t6 -87q0 -94 -26.5 -189.5t-89 -192.5t-154.5 -171t-236 -121t-320 -47h-415zM254 78q67 -4 297 -4q99 0 182.5 19.5t145.5 54t111 83t81 104.5t53 121.5t30 131 t9 135.5q0 82 -18.5 162.5t-62.5 160t-108.5 140t-164.5 98t-223 37.5q-285 0 -332 -6v-1237z" />
<glyph unicode="E" horiz-adv-x="899" d="M63 0q56 27 56 92v1208q0 62 -56 93h717v-142q-32 36 -71.5 53t-108.5 17h-352v-512h356q21 0 42.5 18.5t29.5 38.5v-182q-8 21 -29.5 39t-42.5 18h-356v-655q120 -16 209 -16h12q69 0 99.5 0.5t76.5 2.5t65.5 7t47.5 14t43 23t31.5 34t31.5 48l-35 -199h-766z" />
<glyph unicode="F" horiz-adv-x="837" d="M63 0q56 27 56 92v1208q0 62 -56 93h760v-142q-48 70 -186 70h-389v-512h356q21 0 42.5 18.5t29.5 38.5v-182q-8 21 -29.5 39t-42.5 18h-356v-649q0 -65 55 -92h-240z" />
<glyph unicode="G" horiz-adv-x="1470" d="M18 690q0 104 31 206t95.5 195t156 163.5t221.5 112.5t281 42q116 0 230 -33t255 -96q17 -281 17 -289q-31 87 -85.5 154.5t-110.5 104.5t-120 60.5t-108 30.5t-80 7q-126 0 -231 -33.5t-178.5 -92t-124.5 -138t-75 -170.5t-24 -191q0 -98 21.5 -191.5t69 -181 t117 -153.5t173 -106t229.5 -40q252 0 434 127v303q0 66 -53 92h238q-54 -26 -54 -92v-239q0 -20 6.5 -44t13.5 -38l7 -15q-118 -76 -292 -118.5t-298 -42.5q-151 0 -290 52t-243.5 143t-166.5 224t-62 287z" />
<glyph unicode="H" horiz-adv-x="1347" d="M66 0q53 26 53 92v1208q0 64 -53 93h237q-53 -29 -53 -93v-491h782v491q0 63 -55 93h240q-56 -29 -56 -93v-1208q0 -66 56 -92h-240q55 27 55 92v651h-782v-651q0 -66 53 -92h-237z" />
<glyph unicode="I" horiz-adv-x="436" d="M68 0q53 26 53 92v1208q0 64 -53 93h237q-53 -29 -53 -93v-1208q0 -66 53 -92h-237z" />
<glyph unicode="J" horiz-adv-x="413" d="M-246 -442q8 2 20.5 7t50 27t71.5 51t75.5 83.5t71 120.5t50 165.5t20.5 214.5v1073q0 62 -56 93h240q-55 -30 -55 -93v-1073q0 -18 -2.5 -48t-13.5 -90.5t-29.5 -119.5t-55.5 -128t-86.5 -124t-127.5 -99t-173 -60z" />
<glyph unicode="K" horiz-adv-x="1073" d="M66 0q55 27 55 92v1208q0 63 -55 93h239q-55 -30 -55 -93v-561q90 83 346 336t256 273q0 9 -0.5 14t-3 9.5t-3.5 6t-7 7t-9 8.5h254q-39 -13 -83 -36.5t-66 -45.5l-543 -537l688 -711q39 -43 99 -63h-301q11 8 16 15t5.5 11t0.5 15q0 9 -60.5 76.5t-155.5 167.5 t-180.5 188.5t-167.5 172.5t-85 87v-641q0 -65 55 -92h-239z" />
<glyph unicode="L" horiz-adv-x="901" d="M66 0q55 27 55 92v1208q0 63 -55 93h239q-55 -30 -55 -93v-1214q120 -16 209 -16h12q69 0 99.5 0.5t76.5 2.5t65.5 7t47.5 14t43 23t31.5 34t31.5 48l-35 -199h-765z" />
<glyph unicode="M" horiz-adv-x="1542" d="M53 1393h197l485 -1162l492 1162h184q-53 -29 -53 -93v-1208q0 -66 53 -92h-237q53 26 53 92v1090l4 43l-14 -43l-517 -1213l-499 1176l-15 55q4 -37 4 -55v-1053q0 -65 56 -92h-185q56 26 56 92v1208q0 28 -18.5 53t-45.5 40z" />
<glyph unicode="N" horiz-adv-x="1331" d="M12 1393h207l864 -1092v999q0 65 -55 93h186q-55 -30 -55 -93v-1318q-969 1208 -969 1228v-1118q0 -66 56 -92h-185q56 27 56 92v1165q0 32 -2 40t-11 24q-37 53 -92 72z" />
<glyph unicode="O" d="M20 719q3 96 37.5 194.5t101 189.5t156.5 161q89 70 213 110q110 36 232 36q15 0 31 -1q101 -3 202.5 -35t194 -94t163.5 -146.5t111 -202.5q36 -105 36 -222q0 -15 -1 -29q-4 -132 -53.5 -248t-128 -198t-176 -140.5t-199.5 -85.5q-92 -24 -180 -24h-19 q-143 5 -276 62.5t-233 151.5q-101 96 -159 232q-53 126 -53 265v24zM172 723q0 -111 25 -208.5t68.5 -169t100.5 -128t123.5 -91.5t134.5 -53t136 -18q256 0 416.5 173.5t160.5 445.5q0 297 -160.5 482t-414.5 185q-126 0 -234 -43t-187 -121.5t-124 -195.5t-45 -258z" />
<glyph unicode="P" horiz-adv-x="931" d="M66 0q55 27 55 92v1208q0 63 -55 93h321q117 0 209 -25t146.5 -64t90.5 -91.5t49 -101.5t13 -99q0 -78 -27.5 -145t-70 -110.5t-77 -68.5t-65.5 -39q-40 -19 -99 -32q-45 -10 -107 -10q-19 0 -39 1q-88 4 -160 37v-553q0 -65 55 -92h-239zM250 688q45 -18 119 -18 q34 0 67.5 4t80 15.5t85.5 35.5t73.5 59.5t54.5 93t20 130.5q0 158 -88 238.5t-250 80.5q-55 0 -95.5 -1.5t-53.5 -3.5l-13 -1v-633z" />
<glyph unicode="Q" d="M16 719q3 96 37 194.5t101 189.5t156.5 161t213.5 110q109 36 231 36q16 0 31 -1q101 -3 202.5 -35t194 -94t163 -146.5t110.5 -201.5q37 -107 37 -228v-24q-4 -122 -47 -231t-111.5 -188.5t-156 -140t-181 -93t-186.5 -39.5q195 -135 366.5 -215t395.5 -158 q-63 -10 -127 -10q-166 0 -338 67q-238 93 -422 316q-136 14 -259.5 74t-216.5 154t-146 226q-48 120 -48 252v25zM168 723q0 -111 25 -208.5t68.5 -169t100.5 -128t123.5 -91.5t134.5 -53t136 -18q256 0 416.5 173.5t160.5 445.5q0 297 -160.5 482t-414.5 185 q-126 0 -234 -43t-187 -121.5t-124 -195.5t-45 -258z" />
<glyph unicode="R" horiz-adv-x="1050" d="M66 0q55 27 55 92v1208q0 63 -55 93h327q113 0 201 -24t138 -60t82.5 -84t43 -89t10.5 -81q0 -79 -31 -146.5t-79 -109.5t-98.5 -66.5t-96.5 -30.5q30 -8 56.5 -25.5t48.5 -43.5t33.5 -41.5t27.5 -40.5q22 -40 57 -102.5t116 -190t128 -176.5q20 -21 53 -41.5t57 -30.5 l23 -10l-159 -2q-82 0 -146 94q-54 81 -97 148t-89 142.5t-64 104.5q-3 5 -18.5 30t-20 31.5t-19 27.5t-23 27.5t-25 20.5t-31 19t-34.5 9.5t-42 4.5l-145 -2v-563q0 -65 55 -92h-239zM250 727q69 -4 139 -4q67 0 127 21t108 60.5t76.5 103.5t28.5 143q0 33 -8 68 t-29.5 73.5t-53.5 68t-85 49t-119 19.5q-55 0 -101 -2t-65 -4l-18 -2v-594z" />
<glyph unicode="S" horiz-adv-x="894" d="M12 377q111 -328 375 -328q69 0 123 22.5t84.5 55.5t50.5 76t26.5 79.5t6.5 71.5q0 56 -15 99.5t-33 71.5t-66.5 60t-79.5 48t-109 52q-15 7 -23 11q-168 79 -246.5 162.5t-78.5 208.5q0 104 57 183t147.5 119t196.5 40q160 0 272 -84l11 -235q-6 35 -31 77.5t-63.5 83 t-98 68t-125.5 27.5q-70 0 -120 -23t-75 -61t-35.5 -75t-10.5 -75q0 -93 57 -150t219 -143q21 -11 60 -30.5t59.5 -30t54 -29t52 -32t44.5 -34.5t40.5 -39.5t31.5 -45t25 -54t14 -62t6 -73.5q0 -75 -27 -141t-71 -113.5t-100 -82t-115 -51.5t-115 -17q-61 0 -117 12t-107 37 t-75.5 39t-67.5 43z" />
<glyph unicode="T" horiz-adv-x="1001" d="M-47 1231v162h1032v-162q-17 30 -46.5 54.5t-66.5 25.5q-185 10 -335 10v-1229q0 -66 53 -92h-238q54 26 54 92v1229q-68 0 -154 -2.5t-138 -4.5l-51 -3q-36 -1 -64.5 -25.5t-45.5 -54.5z" />
<glyph unicode="U" horiz-adv-x="1208" d="M39 1393h262q-65 -35 -65 -93v-874q0 -48 7 -92t30 -97t60 -91.5t104.5 -64.5t156.5 -26q88 0 156.5 21t110.5 54.5t69 81.5t37 97t10 105l-4 886q0 64 -53 93h188q-53 -29 -53 -93l-11 -882q-1 -115 -39.5 -201.5t-104.5 -136t-145.5 -73t-172.5 -23.5q-66 0 -131 14 t-128.5 47.5t-111.5 83t-77.5 126t-29.5 171.5v874q0 58 -65 93z" />
<glyph unicode="V" horiz-adv-x="909" d="M-203 1393h293q-35 -15 -42 -53q-2 -12 -2 -23q0 -26 11 -51l389 -1047l392 1075q16 36 9.5 60.5t-42.5 38.5h176q-16 -12 -25 -19.5t-16 -17.5t-10 -15t-9.5 -20.5t-11.5 -26.5q-15 -34 -138.5 -372.5t-240.5 -660.5l-116 -322q-481 1277 -514 1355q-14 36 -34 57.5 t-69 41.5z" />
<glyph unicode="W" horiz-adv-x="1486" d="M-145 1393h299q-45 -17 -45 -67q0 -26 12 -60l391 -1033l160 519q-134 351 -211 542q-10 25 -17.5 38.5t-28.5 30t-55 30.5h297q-35 -15 -41 -53q-2 -11 -2 -22q0 -27 11 -52l120 -310l117 338q15 36 8.5 60.5t-43.5 38.5h179q-39 -29 -49 -42t-25 -57l-150 -430 l217 -639l353 1069q14 36 4.5 60.5t-47.5 38.5h204q-5 -3 -14.5 -10.5t-12.5 -9.5t-10 -7.5t-9.5 -8t-7.5 -7t-6.5 -8t-5.5 -9t-6 -11t-5 -12.5t-6 -16l-463 -1355q-129 391 -258 720l-236 -720q-483 1277 -516 1355q-14 37 -33.5 58t-68.5 41z" />
<glyph unicode="X" horiz-adv-x="1013" d="M-109 -2q48 25 71.5 44t49.5 58q261 363 400 592l-373 602q-6 9 -11.5 17t-13 14.5t-12.5 12t-14 11.5l-13.5 9t-16 9t-16 8t-18 9t-18.5 9h344q-30 -12 -44 -23.5t-14 -37.5t25 -66l277 -445l290 473q19 26 10 55.5t-46 43.5h229q-44 -21 -67.5 -42t-45.5 -57l-332 -534 l414 -662q32 -52 47 -65t68 -35h-326q29 12 43.5 24t14 38t-24.5 65l-315 504l-349 -531q-15 -23 -8 -54.5t43 -45.5h-248z" />
<glyph unicode="Y" horiz-adv-x="907" d="M-147 1393h331q-17 -7 -21.5 -8.5t-17.5 -8.5t-15.5 -12l-7.5 -15t-2 -20.5t9 -26.5t18 -36l310 -512l282 540q17 32 16.5 51t-12.5 28t-41 20h230q-46 -22 -69.5 -42.5t-43.5 -56.5l-330 -622v-580q0 -57 72 -92h-285q74 36 74 92v574l-379 628q-20 35 -45.5 55 t-72.5 44z" />
<glyph unicode="Z" horiz-adv-x="983" d="M-43 0l780 1321q-59 0 -152 2q-93 3 -147 3h-36q-38 0 -80 -1q-63 -1 -105 -6.5t-70 -15.5q-43 -16 -79.5 -48t-49.5 -59v197h920l-776 -1319q6 0 64.5 -2t121 -1.5t141.5 2t156.5 7.5t134.5 16q47 8 79 38t48 63v-197h-950z" />
<glyph unicode="[" horiz-adv-x="442" d="M94 -262v1829h314v-25h-181v-1782h183v-22h-316z" />
<glyph unicode="\" horiz-adv-x="978" d="M-2 1393h102q41 -96 214 -388t366.5 -609.5t237.5 -395.5h-101q-42 94 -214 384.5t-365.5 609t-239.5 399.5z" />
<glyph unicode="]" horiz-adv-x="442" d="M33 -240h182v1782h-180v25h313v-1829h-315v22z" />
<glyph unicode="^" horiz-adv-x="952" d="M203 1022q-7 7 128.5 128.5t145.5 121.5q12 0 146.5 -121.5t128.5 -128.5q-5 -5 -74 27.5t-135 68.5l-66 35l-173 -90q-95 -47 -101 -41z" />
<glyph unicode="_" horiz-adv-x="1228" d="M-14 -141h1253v-62h-1253v62z" />
<glyph unicode="`" horiz-adv-x="464" d="M51 1212q0 26 17 43t43 17q36 0 79 -58l111 -124q53 -63 49 -68q-5 -5 -65 25t-117 63l-57 33q-60 29 -60 69z" />
<glyph unicode="a" horiz-adv-x="833" d="M8 229q0 148 135 230q46 28 222 81t208 93v82q0 32 -9.5 62.5t-30.5 59t-59.5 45.5t-90.5 17q-66 0 -114 -20t-81.5 -63.5t-54 -88t-45.5 -117.5l-6 236q70 55 103 72q78 40 194 40q39 0 76.5 -5.5t80 -22t74 -43t52 -72.5t20.5 -106v-574v-9q0 -20 1 -29.5t6 -22.5 t18.5 -19.5t35.5 -9.5l-104 -63q-39 29 -52.5 58t-13.5 105q-152 -161 -329 -161q-52 0 -94 18t-68 45.5t-43 61.5t-24 64t-7 56zM125 258q0 -88 44 -135t126 -47q156 0 278 129v346q-19 -10 -38 -18.5t-46.5 -18t-43 -14.5t-57.5 -18t-60 -19q-96 -30 -149.5 -77 t-53.5 -128z" />
<glyph unicode="b" horiz-adv-x="966" d="M27 1360l184 49v-580q75 67 140.5 98t152.5 31q94 0 169.5 -45t120 -116t68 -151t23.5 -159q0 -88 -28 -174t-82.5 -161t-147 -121.5t-209.5 -46.5q-65 0 -145 27.5t-127 54.5l-48 28v1186q0 54 -43 71q-7 3 -22 7zM211 168q3 -5 8 -13.5t26.5 -30.5t48 -39t73 -30.5 t100.5 -13.5q34 0 70.5 13t76.5 46t71.5 81t52 126.5t20.5 175.5q0 87 -20.5 156.5t-51.5 110.5t-72.5 68.5t-80 37.5t-76.5 10q-64 0 -132 -23.5t-114 -80.5v-594z" />
<glyph unicode="c" horiz-adv-x="831" d="M20 467q0 62 16.5 127.5t53 131t88.5 117t129.5 83.5t169.5 32q55 0 119.5 -20t101.5 -40l37 -21v-242q-36 119 -115 193.5t-174 74.5q-64 0 -116.5 -26.5t-86.5 -69t-58 -97t-34 -109t-10 -107.5q0 -108 36.5 -199.5t114.5 -152t185 -60.5q47 0 90.5 11t70 22t59.5 35.5 t41.5 32.5t33.5 32q-3 -25 -23 -61t-57 -75.5t-101.5 -67t-141.5 -27.5q-86 0 -158.5 30t-121.5 79.5t-83.5 113t-50 129.5t-15.5 131z" />
<glyph unicode="d" horiz-adv-x="956" d="M20 494q0 77 29.5 156.5t84.5 149.5t146 114t201 44q121 0 201 -73v395q0 21 -5 35.5t-17.5 23t-19.5 11.5t-26 8q-4 1 -6 2l187 49v-1294q0 -21 5.5 -35.5t16.5 -22.5t20 -11.5t24 -8.5q5 -1 7 -2l-176 -51l-6 116q-39 -42 -115 -79t-149 -37q-90 0 -161.5 32 t-115.5 82.5t-73 119t-40.5 136.5t-11.5 140zM147 487q0 -96 23 -173t58 -122.5t79.5 -76t82.5 -41.5t73 -11q60 0 119.5 29.5t99.5 65.5v622q-28 48 -77.5 83.5t-117.5 35.5q-149 0 -244.5 -110t-95.5 -302z" />
<glyph unicode="e" horiz-adv-x="905" d="M20 463q0 62 16.5 128t53 132t88.5 118t129.5 84.5t169.5 32.5q44 0 90.5 -13.5t93.5 -45t83.5 -76.5t59.5 -114t23 -152h-671q0 -10 -1 -32.5t-1 -32.5q0 -187 88 -299.5t250 -112.5q105 0 206 73t131 154q-9 -129 -114 -226t-250 -97q-86 0 -160.5 30t-125.5 78.5 t-88 111.5t-54 129t-17 130zM162 610h536q0 82 -21 141t-58 91t-79.5 46.5t-93.5 14.5q-63 0 -114.5 -24.5t-85 -67.5t-54 -93t-30.5 -108z" />
<glyph unicode="f" horiz-adv-x="432" d="M-2 872v62h111v190q0 131 68 208t183 77q51 0 83.5 -11.5t70.5 -41.5v-160q-11 60 -54.5 111t-92.5 51q-146 0 -146 -201v-223h285v-62h-285v-796q0 -32 13 -47t42 -29h-221q29 14 41.5 29t12.5 47v796h-111z" />
<glyph unicode="g" horiz-adv-x="878" d="M-8 -244q0 43 15 78t43.5 60.5t52.5 40.5t59 34q11 5 16 8q-4 1 -11 2.5t-24 9.5t-30 19t-24 31.5t-11 46.5q0 90 168 186q-94 41 -150.5 125.5t-56.5 200.5q0 100 53.5 184.5t134.5 130t166 45.5q95 0 148 -22h307v-62h-211q61 -51 94 -123.5t33 -146.5 q0 -148 -105 -253t-262 -105q-10 0 -34 2.5t-37 1.5q-59 -3 -99.5 -27.5t-40.5 -66.5q0 -34 39 -49.5t137 -16.5l183 -2q282 -6 282 -201q0 -147 -143.5 -254.5t-347.5 -107.5q-57 0 -114.5 12.5t-110.5 38.5t-86 72.5t-33 107.5zM84 -215q0 -73 81 -133t236 -60 q150 0 242 71t92 177q0 34 -16 60t-37.5 39t-50 20.5t-47 9.5t-35.5 2q-94 0 -191.5 3t-99.5 3q-73 -26 -123.5 -79t-50.5 -113zM162 612q0 -74 14.5 -131t37 -90.5t54 -55t60 -29t59.5 -7.5q108 0 178 75.5t70 223.5q0 157 -65 234t-171 77q-114 0 -175.5 -76.5 t-61.5 -220.5z" />
<glyph unicode="h" horiz-adv-x="972" d="M31 1360l186 49v-604l25 20q24 20 35 28t38.5 27.5t48.5 30t49.5 23.5t56.5 18.5t56 5.5q71 0 137 -30t112 -93.5t46 -146.5v-612q0 -32 12 -47t41 -29h-217q29 14 41.5 29t12.5 47v538q0 53 -12 96t-38.5 79.5t-75.5 56.5t-118 20q-70 0 -143.5 -37t-106.5 -81v-672 q0 -32 13 -47t42 -29h-221q29 14 41 29t12 47v1204q0 18 -5 31.5t-9.5 20.5t-18.5 14t-18 8t-22 6z" />
<glyph unicode="i" horiz-adv-x="376" d="M31 909l186 49v-882q0 -32 13 -47t42 -29h-221q29 14 41 29t12 47v753q0 18 -5 31.5t-9.5 20.5t-18.5 14t-18 8t-22 6zM90 1290q0 31 22.5 52.5t53.5 21.5t52.5 -21.5t21.5 -52.5q0 -32 -21.5 -54t-52.5 -22t-53.5 22t-22.5 54z" />
<glyph unicode="j" horiz-adv-x="354" d="M-178 -209q21 -83 54.5 -120.5t92.5 -37.5q35 0 60.5 17.5t37.5 42t18.5 49t7.5 42.5l1 17v1028q0 21 -5 35.5t-17.5 23t-19.5 11.5t-26 8q-4 1 -6 2l187 49v-1097q0 -115 -71 -198t-167 -83q-19 0 -34 1t-28 4.5t-21.5 6t-19 8.5t-14.5 8.5t-15.5 11t-14.5 11.5v160z M80 1290q0 31 22.5 52.5t53.5 21.5t52 -21.5t21 -52.5q0 -32 -21 -54t-52 -22t-53.5 22t-22.5 54z" />
<glyph unicode="k" horiz-adv-x="802" d="M31 1360l186 49v-899l348 336q27 28 27 48q0 4 -2 8q-8 22 -49 34h272l-36 -18t-38.5 -20t-32 -20.5t-36.5 -27.5l-342 -318l444 -440q28 -27 38 -36t34.5 -25.5t54.5 -30.5h-295q33 13 41.5 36.5t-8.5 37.5l-420 415v-413q0 -32 13 -47t42 -29h-221q29 14 41 29t12 47 v1204q0 18 -5 31.5t-9.5 20.5t-18.5 14t-18 8t-22 6z" />
<glyph unicode="l" horiz-adv-x="378" d="M31 1360l186 49v-1333q0 -32 13 -47t42 -29h-221q29 14 41 29t12 47v1204q0 18 -5 31.5t-9.5 20.5t-18.5 14t-18 8t-22 6z" />
<glyph unicode="m" horiz-adv-x="1554" d="M31 911l186 50v-156q5 4 35 30t52 42t56.5 37.5t72 32.5t75.5 11q92 0 173.5 -51.5t109.5 -140.5q54 73 144 132.5t175 59.5q72 0 138 -30t111.5 -93.5t45.5 -146.5v-612q0 -32 12 -47t41 -29h-217q29 14 42 29t13 47v538q0 252 -243 252q-67 0 -136.5 -43t-115.5 -108 q2 -10 2 -27v-612q0 -32 12 -47t41 -29h-217q29 14 41 29t12 47v538q0 252 -243 252q-68 0 -133 -36t-99 -82v-672q0 -32 13 -47t42 -29h-221q29 14 41 29t12 47v753q0 14 -2 24.5t-7 18.5t-8.5 13t-12.5 9.5t-12.5 6.5t-15.5 5.5t-15 4.5z" />
<glyph unicode="n" horiz-adv-x="952" d="M31 909l186 49v-153q38 47 121 100t170 53q72 0 138 -30t111.5 -93.5t45.5 -146.5v-612q0 -32 12 -47t41 -29h-217q29 14 41 29t12 47v538q0 252 -243 252q-67 0 -127 -35t-105 -83v-672q0 -32 13 -47t42 -29h-221q29 14 41 29t12 47v753q0 18 -5 31.5t-9.5 20.5 t-18.5 14t-18 8t-22 6z" />
<glyph unicode="o" horiz-adv-x="942" d="M18 477q1 86 30.5 171t82.5 154.5t135 113.5q80 43 172 42h4q87 -1 159 -30.5t119.5 -77.5t80 -112t46.5 -132q13 -63 13 -128v-9q-1 -84 -32 -170t-84.5 -156t-135 -114.5t-174.5 -44.5q-104 1 -187 46t-131.5 117.5t-73.5 156.5q-24 81 -24 166v7zM145 459 q3 -79 24 -152.5t59 -134.5q36 -60 96 -96q55 -33 122 -33h11q74 4 130.5 44.5t88 104.5t45.5 139q11 58 11 119q0 17 -1 35q-4 80 -25 153.5t-58 135.5q-36 60 -96 96q-55 33 -121 33h-11q-73 -4 -129 -44.5t-88 -104.5q-33 -65 -47 -140q-12 -62 -12 -128q0 -13 1 -27z " />
<glyph unicode="p" horiz-adv-x="964" d="M33 909l178 49v-139q34 47 116 93t171 46q49 0 99.5 -16t103 -53t93 -91.5t66 -139t25.5 -187.5q0 -62 -17 -127.5t-54 -130t-88.5 -115.5t-128 -82.5t-165.5 -31.5q-123 0 -219 49v-422q0 -31 12.5 -45.5t42.5 -28.5h-221q29 14 41 28.5t12 45.5v1218q0 22 -4.5 37 t-17.5 23.5t-19.5 11t-25.5 8.5zM213 158q89 -119 215 -119q147 0 237.5 113.5t90.5 318.5q0 96 -22 170.5t-55 116t-76.5 67.5t-79.5 34.5t-72 8.5q-68 0 -135 -35.5t-103 -82.5v-592z" />
<glyph unicode="q" horiz-adv-x="931" d="M20 446q0 90 31 178.5t89 164t153.5 122.5t212.5 47q34 0 77.5 -11t70.5 -23l26 -11l106 31v-1333q0 -31 13 -45.5t43 -28.5h-221q29 14 41 28.5t12 45.5v475q-62 -52 -117 -77t-139 -25q-82 0 -149.5 27.5t-113 72.5t-76.5 105.5t-45 125t-14 131.5zM150 469 q0 -171 82.5 -287t230.5 -116q60 0 118.5 24t92.5 66v612q-1 5 -4 14t-16 31t-31 39t-53 31t-78 14q-62 0 -122 -27t-109.5 -78t-80 -135t-30.5 -188z" />
<glyph unicode="r" horiz-adv-x="559" d="M31 909l186 49v-182q34 55 103.5 118.5t119.5 63.5q18 0 29 -1.5t15.5 -2.5t13 -5.5t14.5 -6.5v-127q-22 13 -31.5 18t-28 10t-40.5 5q-97 0 -195 -131v-641q0 -32 13 -47t42 -29h-221q29 14 41 29t12 47v753q0 18 -5 31.5t-9.5 20.5t-18.5 14t-18 8t-22 6z" />
<glyph unicode="s" horiz-adv-x="645" d="M6 86v233q27 -115 94 -192.5t162 -77.5q55 0 97 20.5t63 51t31 58.5t10 50q0 21 -4.5 39.5t-10 32t-20 29t-24.5 25t-33.5 25t-37 23.5t-46 27t-49.5 29q-118 70 -162.5 125.5t-44.5 140.5q0 34 14 71.5t42.5 75t84 62t127.5 24.5q102 0 205 -71v-209q-12 44 -30 82 t-44 72t-64 53.5t-83 19.5q-72 0 -116 -43.5t-44 -93.5q0 -33 9.5 -58t36 -49t52 -41t78.5 -49q126 -75 172 -115q100 -88 100 -200q0 -82 -48.5 -146t-120.5 -95t-150 -31q-17 0 -33.5 2t-30.5 5t-30 9t-27 10t-26.5 12.5t-23 12.5t-22.5 14l-19.5 13t-18 13t-15.5 11z" />
<glyph unicode="t" horiz-adv-x="518" d="M16 874l185 228v-166h299v-62h-301v-604q0 -65 18.5 -110.5t49 -66.5t59 -29.5t59.5 -8.5q18 0 33.5 1.5t28 5.5t21 7t18.5 9.5t14 9.5t13 11t11 10q0 -40 -60 -82.5t-126 -42.5q-107 0 -177.5 68.5t-70.5 205.5v616h-74z" />
<glyph unicode="u" horiz-adv-x="956" d="M18 909l187 49v-593q0 -130 61.5 -208.5t163.5 -78.5q40 0 72 6.5t65 26t48 30.5t53 43q3 2 5 3.5t4.5 3.5t4.5 4v634q0 54 -44 71q-5 2 -28 9l185 49v-823q0 -96 82 -106l-127 -45q-24 18 -31.5 24.5t-19 23.5t-14.5 39t-3 58q-126 -145 -299 -145q-35 0 -71.5 10 t-77 36.5t-72 67t-52 109t-20.5 155.5v467q0 21 -5 35.5t-16.5 22.5t-19.5 11.5t-24 8.5q-5 1 -7 2z" />
<glyph unicode="v" horiz-adv-x="714" d="M-98 934h268q-62 -24 -62 -65q0 -12 5 -25l239 -631l248 627q7 17 8 30.5t-2 22.5t-13.5 16.5t-20.5 12.5t-29 12h221q-31 -15 -50.5 -34.5t-35.5 -57.5l-359 -860l-325 852q-16 45 -36 68.5t-56 31.5z" />
<glyph unicode="w" horiz-adv-x="1210" d="M-98 936h291q-78 -23 -78 -69q0 -10 4 -21l209 -615l217 578l-23 51q-14 33 -38.5 50t-71.5 26h319q-47 -11 -67.5 -34.5t-10.5 -55.5l209 -608l246 593q5 14 5 27q-1 18 -11 36q-18 30 -55 42h231q-70 -31 -102 -105l-353 -847l-248 729l-272 -729l-305 852 q-28 77 -96 100z" />
<glyph unicode="x" horiz-adv-x="724" d="M-152 0q40 12 82 40t60 54l276 379l-274 375q-29 40 -46 55t-57 33h297q-23 -9 -34 -15t-21.5 -18.5t-4.5 -32.5t26 -49l186 -258l194 273q21 31 8.5 60t-51.5 40h240q-39 -20 -62 -38.5t-46 -49.5l-246 -332l303 -428q12 -17 27 -31t24 -20t31 -18.5t31 -18.5h-297 q22 9 33 15t20.5 18.5t3 32.5t-26.5 49l-217 307l-246 -334q-12 -24 -12 -42q0 -34 45 -46h-246z" />
<glyph unicode="y" horiz-adv-x="739" d="M-82 934h291q-48 -18 -59 -30q-14 -15 -14 -39q0 -19 9 -44l226 -631q169 379 264 631q9 24 9 42q0 56 -75 71h248q-40 -21 -63.5 -40t-34.5 -48q-42 -104 -249.5 -578t-322.5 -755h-159q23 12 41.5 25.5t28.5 21t22.5 25l15 21t15 28t14.5 28.5q37 72 186 389l-295 795 q-8 21 -14.5 34t-17 22t-15 11.5t-23.5 9.5t-28 11z" />
<glyph unicode="z" horiz-adv-x="763" d="M-27 0l543 874q-53 2 -147 2h-49q-130 0 -199 -4q-76 -2 -105 -63l7 127h661l-537 -875q307 0 455 9q21 1 38 6t27 10.5t19 17t12 17.5t9 20t8 17l-6 -158h-736z" />
<glyph unicode="{" horiz-adv-x="450" d="M-4 676q16 5 28.5 12.5t22 14.5t17 20t12 21.5t8 27t5 27t2.5 31t1 30.5v33.5v32.5v399q0 76 19.5 123.5t63.5 72.5t98.5 33.5t140.5 8.5q-95 -34 -117 -47q-53 -33 -64 -104q-4 -26 -4 -62v-400q0 -133 -35 -192t-126 -82q94 -24 127.5 -87t33.5 -202v-434 q0 -41 10.5 -73t25.5 -52.5t42.5 -38t49 -27t57.5 -22.5q-99 0 -157.5 10.5t-97.5 40t-53 78t-14 129.5v426q0 14 1 48t0.5 48.5t-3 41t-8.5 40t-16.5 30.5t-28 27.5t-41.5 16.5z" />
<glyph unicode="|" horiz-adv-x="346" d="M125 -219v1708h90v-1708h-90z" />
<glyph unicode="}" horiz-adv-x="450" d="M25 -260q45 16 71.5 29t56 37t43 60t13.5 87v434q0 139 34 202t128 87q-91 23 -126.5 82t-35.5 192v400q0 54 -8.5 88t-32 55.5t-47.5 33t-73 28.5q-15 5 -23 8q86 0 140.5 -8.5t98 -33.5t63 -72.5t19.5 -123.5v-399v-32.5v-33.5t1 -30.5t2.5 -31t5 -27t8 -27t12 -21.5 t17 -20t22 -14.5t28.5 -12.5q-24 -6 -41.5 -16.5t-28 -27.5t-16.5 -30.5t-8.5 -40t-3 -41t0.5 -48.5t1 -48v-426q0 -157 -65 -207.5t-256 -50.5z" />
<glyph unicode="~" horiz-adv-x="952" d="M195 1075q4 28 70 78.5t132 50.5q27 0 103 -30.5t104 -30.5q29 0 54.5 10.5t35.5 21.5l11 11l36 -15q-4 -4 -10.5 -11.5t-28 -26.5t-42.5 -33.5t-51.5 -26.5t-57.5 -12q-40 0 -84 17.5t-78 34.5t-49 17q-26 0 -53.5 -15t-41.5 -31l-14 -15z" />
<glyph unicode="&#xa1;" horiz-adv-x="430" d="M74 -244q0 41 36.5 432.5t55.5 520.5q18 -131 55 -523.5t37 -429.5q0 -215 -92 -215q-50 0 -71 54.5t-21 160.5zM90 885q0 31 22 52t54 21q31 0 52.5 -21t21.5 -52q0 -32 -21.5 -54t-52.5 -22q-32 0 -54 22t-22 54z" />
<glyph unicode="&#xa2;" horiz-adv-x="823" d="M10 678q0 58 14 119.5t45.5 123.5t76 113t111 87t146.5 46q0 33 -1 90t-1 78h66l-2 -164q56 0 121 -20.5t102 -40.5l37 -20v-242q-35 112 -104 184.5t-158 81.5q0 -128 1 -414.5t1 -402.5q57 0 106.5 13t89.5 39.5t56 40t45 40.5q-2 -18 -13 -44t-35.5 -58t-57 -59.5 t-83 -47t-108.5 -22.5l2 -168h-66q2 66 2 168q-99 7 -177 54t-123.5 117.5t-69 149t-23.5 158.5zM131 707q0 -151 71 -266t201 -140q0 113 1.5 398.5t1.5 414.5q-58 -6 -106 -35t-78.5 -71t-51.5 -94.5t-30 -104.5t-9 -102z" />
<glyph unicode="&#xa3;" horiz-adv-x="802" d="M4 -16q217 264 217 438q0 110 -41 225h-170v64h146q-10 26 -35.5 88.5t-37 95.5t-23 83.5t-11.5 94.5q0 58 25.5 117t72 108t119 80t158.5 31q121 0 276 -92l-10 -227q-7 29 -19.5 60.5t-36 68t-53 64.5t-73 46.5t-92.5 18.5q-53 0 -95 -16.5t-68 -41.5t-43 -58 t-23.5 -63.5t-6.5 -60.5q0 -64 20 -127.5t58 -145.5t53 -124q76 1 134 5.5t87.5 9.5t48 10t23.5 8l4 4v-134q-3 3 -14.5 7.5t-81.5 13.5t-182 12q14 -65 14 -119q0 -75 -25.5 -153t-64 -138.5t-78 -105t-74.5 -68.5q122 66 281 66q40 0 109 -5t96 -5q102 0 168 55 q-16 -24 -32 -54t-32.5 -63.5t-23.5 -46.5q-58 -26 -138 -26q-50 0 -141 16t-131 16q-169 0 -254 -32z" />
<glyph unicode="&#xa4;" horiz-adv-x="1126" d="M2 584l23 63h153v45q0 55 2 80h-176l23 64h157q32 275 180.5 422t387.5 147q55 0 119.5 -20.5t101.5 -40.5l37 -21v-242q-36 119 -115 194t-174 75q-153 0 -256.5 -133.5t-124.5 -380.5h205q145 0 238 9t114 18l21 9l-58 -133q-17 33 -342 33h-180q-2 -16 -2 -53 q0 -49 2 -72h127q145 0 238 9.5t114 18.5l21 9l-58 -133q-17 33 -342 33h-96q10 -93 34.5 -169.5t58.5 -128.5t73 -90t82.5 -59t83 -31t78.5 -10q168 0 295 121q-2 -20 -14 -46.5t-39.5 -59.5t-66.5 -60.5t-102.5 -46t-138.5 -18.5q-99 0 -180.5 34.5t-136.5 91.5 t-95.5 135.5t-62 161.5t-29.5 175h-180z" />
<glyph unicode="&#xa5;" horiz-adv-x="823" d="M-184 1393h331q-22 -9 -29.5 -12.5t-20.5 -13.5t-13.5 -21.5t5 -32t22.5 -47.5l309 -512l282 540q17 32 16.5 51t-12 28t-40.5 20h229q-46 -22 -69.5 -42.5t-43.5 -56.5l-315 -596h266v-67h-280v-162h280v-70h-280v-307q0 -58 71 -92h-284q73 35 73 92v307h-321v70h321 v162h-321v67h303l-361 596q-21 34 -47 55t-71 44z" />
<glyph unicode="&#xa6;" horiz-adv-x="346" d="M125 -219v676h90v-676h-90zM125 813v676h90v-676h-90z" />
<glyph unicode="&#xa7;" horiz-adv-x="778" d="M27 639q1 83 62.5 150.5t152.5 87.5q-161 109 -158 272q0 26 8.5 56.5t29 65t50.5 62t78 45.5t106 17q115 0 222 -76l-5 -209q-23 92 -84.5 160t-148.5 69q-72 1 -118 -49.5t-46 -101.5q-1 -65 41.5 -120t132.5 -110q18 -11 69.5 -40.5t81.5 -48t73.5 -53.5t68 -67.5 t42.5 -79.5t17 -98q-1 -84 -61 -150.5t-152 -88.5q99 -78 133.5 -144.5t34.5 -158.5q0 -24 -9 -53.5t-31.5 -64t-56.5 -62t-89 -46t-123 -18.5q-52 0 -120 17.5t-126 58.5l4 209q22 -88 94.5 -159t161.5 -71q82 0 134.5 50t56.5 102q5 70 -39.5 138t-130.5 120 q-19 12 -71.5 41.5t-82.5 48t-74 53.5t-68.5 67.5t-42.5 79.5t-17 99zM141 649q-1 -34 13.5 -65.5t36 -55.5t56.5 -49.5t65.5 -44t73.5 -42.5q9 -5 13 -7q93 -1 142 55t51 119q0 29 -8.5 55.5t-31 51.5t-41 42.5t-57.5 41.5t-58.5 35t-65.5 36q-48 1 -86 -15.5t-59 -44 t-32 -56t-12 -56.5z" />
<glyph unicode="&#xa8;" horiz-adv-x="516" d="M25 1143q0 31 21.5 52.5t53.5 21.5q31 0 52.5 -21.5t21.5 -52.5q0 -32 -22.5 -54t-53.5 -22q-32 0 -52.5 21.5t-20.5 54.5zM289 1143q0 31 22 52.5t54 21.5q31 0 52 -21.5t21 -52.5q0 -32 -21 -54t-52 -22q-32 0 -54 22t-22 54z" />
<glyph unicode="&#xa9;" horiz-adv-x="1650" d="M94 676q0 150 58 286.5t156 234.5t233 156t284 58q150 0 286 -58t234.5 -156t157 -234.5t58.5 -286.5q0 -148 -58.5 -283.5t-157 -233t-234.5 -155t-286 -57.5q-148 0 -283.5 57.5t-233.5 155t-156 233t-58 283.5zM156 676q0 -136 53 -259.5t142 -213t213 -142.5t261 -53 q138 0 262.5 53t214.5 142.5t142.5 213t52.5 259.5q0 186 -89 341t-243.5 244t-339.5 89q-137 0 -260.5 -52.5t-213.5 -142t-142.5 -214.5t-52.5 -265zM354 674q0 138 60.5 252.5t175 183t262.5 68.5q175 0 315 -97l-59 -80q-64 43 -122.5 60.5t-131.5 19.5 q-122 2 -213 -54.5t-135.5 -148.5t-44.5 -204q0 -168 106.5 -283t284.5 -115q146 0 260 74l53 -78q-76 -52 -148 -73t-165 -21q-225 0 -361.5 142t-136.5 354z" />
<glyph unicode="&#xaa;" horiz-adv-x="542" d="M6 961q0 89 86 137q30 16 144.5 48t136.5 56v49q0 44 -29.5 77.5t-93.5 33.5q-43 0 -74.5 -12t-53.5 -37.5t-35.5 -52.5t-29.5 -70l-4 141q33 24 48.5 34t55.5 22t89 12q33 0 63.5 -6.5t62.5 -21.5t51 -46.5t19 -75.5v-344q0 -15 0.5 -20.5t4 -15t12 -13.5t24.5 -6 l-67 -37q-25 16 -34 33.5t-9 64.5q-98 -98 -215 -98q-42 0 -73.5 16t-47.5 40.5t-23.5 48t-7.5 43.5zM82 979q0 -54 28.5 -82.5t82.5 -28.5q102 0 180 78v207q-35 -16 -160 -51q-64 -20 -97.5 -47.5t-33.5 -75.5z" />
<glyph unicode="&#xab;" horiz-adv-x="1024" d="M156 504v162q21 0 55 9.5t87 36t108 66t120 107.5t121 153q-8 -28 -26 -72t-54.5 -107t-81 -118t-109.5 -99t-134 -56q70 -16 134.5 -62t109 -100.5t81 -116.5t55 -105.5t25.5 -70.5q-56 83 -121.5 151t-121 107.5t-108.5 67t-87 37.5t-53 10zM475 504v162q21 0 55 9.5 t87 36t108.5 66t120.5 107.5t121 153q-8 -28 -26 -72t-55 -107t-81.5 -118t-109.5 -99t-134 -56q70 -16 134.5 -62t109 -100.5t81.5 -116.5t55.5 -105.5t25.5 -70.5q-56 83 -121.5 151t-121 107.5t-109 67t-87.5 37.5t-53 10z" />
<glyph unicode="&#xac;" horiz-adv-x="677" d="M-45 332l553 602v-531h162v-71h-162v-273q0 -40 43 -59h-176q45 18 45 59v273h-465zM88 403h332v365z" />
<glyph unicode="&#xad;" horiz-adv-x="468" d="M61 487v91h347v-91h-347z" />
<glyph unicode="&#xae;" horiz-adv-x="798" d="M29 1026q0 158 111.5 270.5t269.5 112.5t271.5 -112.5t113.5 -270.5q0 -161 -113 -274t-272 -113q-158 0 -269.5 113t-111.5 274zM53 1026q0 -151 104.5 -256.5t252.5 -105.5t251 106t103 256q0 149 -103 254.5t-251 105.5t-252.5 -105.5t-104.5 -254.5zM227 819v414h232 q162 0 162 -123q0 -60 -47 -95.5t-97 -27.5l129 -168h-47l-125 168h-170v-168h-37zM264 1018h203q22 0 38 3t34.5 11.5t28.5 28t10 49.5q2 92 -115 90h-4h-195v-182z" />
<glyph unicode="&#xaf;" horiz-adv-x="952" d="M176 1108v76h635v-76h-635z" />
<glyph unicode="&#xb0;" horiz-adv-x="600" d="M14 1167q0 107 75.5 182.5t182.5 75.5t182.5 -75.5t75.5 -182.5q0 -106 -75.5 -181t-182.5 -75t-182.5 75t-75.5 181zM92 1167q0 -72 53.5 -125t126.5 -53q72 0 125.5 53t53.5 125q0 73 -53.5 127t-125.5 54q-73 0 -126.5 -53.5t-53.5 -127.5z" />
<glyph unicode="&#xb1;" horiz-adv-x="1052" d="M76 2v109h819v-109h-819zM76 627v108h356v418h109v-418h354v-108h-354v-418h-109v418h-356z" />
<glyph unicode="&#xb2;" horiz-adv-x="600" d="M-55 489q13 18 106.5 113t195.5 203.5t138 161.5q53 78 53 168q0 88 -47.5 142t-134.5 54q-126 0 -240 -133q0 67 81.5 137t193.5 70q111 0 178.5 -78t67.5 -166q0 -118 -103 -229l-342 -365h387q18 1 30.5 7.5t17.5 13t11 19t9 16.5l12 -134h-614z" />
<glyph unicode="&#xb3;" horiz-adv-x="528" d="M-51 586q12 -5 36 -17t34.5 -16t29 -10.5t36 -8.5t38.5 -2q114 0 183 64t69 162q0 79 -68 137.5t-233 77.5q14 6 43 19t45.5 20.5t38 18.5t36.5 21t25 19q55 49 55 123q0 66 -54.5 109t-102.5 43q-79 0 -148 -60q9 35 65.5 77t125.5 42q80 0 142.5 -57.5t62.5 -133.5 q0 -126 -181 -200q53 -5 96.5 -24t70.5 -45t45.5 -58.5t26 -62.5t7.5 -58q0 -51 -18.5 -100t-54 -91.5t-97 -69t-139.5 -26.5q-47 0 -82 8.5t-61 27.5t-39 32t-33 39z" />
<glyph unicode="&#xb4;" horiz-adv-x="829" d="M252 1022q-4 4 35.5 52t80.5 94l42 46q43 58 82 58q25 0 42 -17t17 -43q0 -37 -62 -69l-148 -83q-83 -44 -89 -38z" />
<glyph unicode="&#xb5;" horiz-adv-x="550" d="M-33 610q49 -36 89 -54.5t89 -18.5q113 0 183.5 67.5t70.5 165.5q0 93 -66 157t-159 64q-55 0 -83.5 -5.5t-63.5 -24.5l77 432h299q38 0 55.5 5.5t33.5 20.5l-15 -108h-336l-49 -264q24 11 51.5 16.5t43.5 5.5h16q48 0 99.5 -18.5t96 -51t73 -86t28.5 -116.5 q0 -79 -32 -142.5t-81 -99.5t-99 -55t-93 -19q-53 0 -96 14t-69 36t-41 41t-22 38z" />
<glyph unicode="&#xb6;" horiz-adv-x="1271" d="M0 1012q0 50 13 99t49 101.5t90.5 91.5t146.5 64t209 25h321q-55 -30 -55 -93v-1687q0 -65 55 -92h-239q55 27 55 92v1032q-72 -33 -159.5 -37t-146.5 9t-99 32q-31 14 -65.5 39t-77 68.5t-70 110.5t-27.5 145zM145 1008q0 -73 20 -130.5t54.5 -93t73.5 -59.5t85.5 -35.5 t80 -15.5t67.5 -4q74 0 119 18v633q-39 6 -162 6q-162 0 -250 -80.5t-88 -238.5zM903 -479q53 26 53 92v1687q0 64 -53 93h238q-54 -29 -54 -93v-1687q0 -66 54 -92h-238z" />
<glyph unicode="&#xb7;" horiz-adv-x="321" d="M72 694q0 38 26 64t64 26q37 0 62.5 -26t25.5 -64q0 -37 -25.5 -62.5t-62.5 -25.5q-38 0 -64 25.5t-26 62.5z" />
<glyph unicode="&#xb8;" horiz-adv-x="831" d="M266 -291q77 -63 119 -63q46 0 75 30t29 72t-26 69t-64 27q-43 0 -92 -43l115 250h24l-55 -149q24 0 49 -5t57.5 -19t53 -47t20.5 -81q0 -67 -47.5 -108t-122.5 -41q-36 0 -63 12t-41 31t-21 34.5t-10 30.5z" />
<glyph unicode="&#xb9;" horiz-adv-x="299" d="M-4 1309l180 96v-856q0 -42 45 -60h-180q45 18 45 60v686q0 86 -90 74z" />
<glyph unicode="&#xba;" horiz-adv-x="612" d="M12 1110q0 69 32.5 134.5t97 110t145.5 44.5q71 -1 125.5 -27.5t85.5 -70.5t46.5 -94t14.5 -103q-2 -108 -79.5 -199.5t-196.5 -91.5q-68 0 -122 27t-86 71t-48 95t-15 104zM94 1098q2 -63 24.5 -119t69.5 -94t109 -35q63 3 106 44.5t59 98.5t13 121q-7 105 -59 180.5 t-144 71.5q-91 -3 -137 -84t-41 -184z" />
<glyph unicode="&#xbb;" horiz-adv-x="1024" d="M63 131q7 27 25.5 70.5t55.5 105.5t81.5 116.5t109 100.5t134.5 62q-69 12 -134 56t-109.5 99t-81.5 118t-55 107t-26 72q56 -85 121 -153t120.5 -107.5t108.5 -66t87 -36t55 -9.5v-162q-19 0 -53 -10t-87.5 -37.5t-109 -67t-121 -107.5t-121.5 -151zM383 131 q7 27 25.5 70.5t55 105.5t81 116.5t109 100.5t134.5 62q-69 12 -134 56t-109.5 99t-81 118t-54.5 107t-26 72q56 -85 121 -153t120 -107.5t108 -66t87 -36t55 -9.5v-162q-19 0 -53 -10t-87 -37.5t-108.5 -67t-121 -107.5t-121.5 -151z" />
<glyph unicode="&#xbc;" horiz-adv-x="1253" d="M-4 1309l180 96v-856q0 -42 45 -60h-180q45 18 45 60v686q0 86 -90 74zM25 0q18 32 390 647.5t429 745.5h100q-27 -48 -394.5 -657.5t-422.5 -735.5h-102zM530 332l553 602v-531h162v-71h-162v-273q0 -40 43 -59h-176q45 18 45 59v273h-465zM664 403h331v365z" />
<glyph unicode="&#xbd;" horiz-adv-x="1257" d="M-4 1309l180 96v-856q0 -42 45 -60h-180q45 18 45 60v686q0 86 -90 74zM25 0q18 32 390 647.5t429 745.5h100q-27 -48 -394.5 -657.5t-422.5 -735.5h-102zM602 0q13 18 106.5 113t195.5 203t138 161q54 80 54 168t-48 142.5t-135 54.5q-125 0 -239 -133q0 67 81 136.5 t193 69.5q111 0 178.5 -77.5t67.5 -165.5q0 -120 -102 -230l-342 -364h387q18 1 30.5 7.5t17 13t10.5 18.5t9 16l13 -133h-615z" />
<glyph unicode="&#xbe;" horiz-adv-x="1462" d="M-51 586q12 -5 36 -17t34.5 -16t29 -10.5t36 -8.5t38.5 -2q114 0 183 64t69 162q0 79 -68 137.5t-233 77.5q14 6 43 19t45.5 20.5t38 18.5t36.5 21t25 19q55 49 55 123q0 66 -54.5 109t-102.5 43q-79 0 -148 -60q9 35 65.5 77t125.5 42q80 0 142.5 -57.5t62.5 -133.5 q0 -126 -181 -200q53 -5 96.5 -24t70.5 -45t45.5 -58.5t26 -62.5t7.5 -58q0 -51 -18.5 -100t-54 -91.5t-97 -69t-139.5 -26.5q-47 0 -82 8.5t-61 27.5t-39 32t-33 39zM233 0q19 34 391 648.5t429 744.5h100q-27 -48 -394.5 -657.5t-422.5 -735.5h-103zM739 332l553 602v-531 h162v-71h-162v-273q0 -40 43 -59h-176q45 18 45 59v273h-465zM872 403h332v365z" />
<glyph unicode="&#xbf;" horiz-adv-x="716" d="M33 -190q0 34 14 79t29.5 81.5t51.5 98t55 92.5t65.5 102.5t60.5 92.5q46 75 69.5 140t53.5 223l12 -273q3 -16 0 -36.5t-1.5 -29.5t-4 -24t-6.5 -20t-8.5 -18t-10.5 -18t-13 -19.5t-15 -22.5q-30 -45 -73.5 -115.5t-97.5 -182.5t-54 -165q0 -85 52.5 -139.5t121.5 -54.5 q31 0 56.5 4.5t59.5 22t60.5 47t52 84.5t41.5 130l6 -243q-57 -60 -122 -87.5t-154 -27.5q-42 0 -80.5 6.5t-80 25.5t-71.5 49t-49.5 81t-19.5 117zM352 885q0 31 21.5 52t52.5 21q32 0 54 -21t22 -52q0 -32 -22 -54t-54 -22q-31 0 -52.5 22t-21.5 54z" />
<glyph unicode="&#xc0;" horiz-adv-x="1132" d="M-94 0q42 30 59 49t29 49l549 1315q501 -1237 534 -1315q14 -36 34 -57t69 -41h-299q76 29 47 98q-121 293 -142 344h-565q-120 -284 -141 -344q-15 -35 -5 -59t48 -39h-217zM248 512h512q-53 129 -117 290.5t-101 257.5l-38 97q-137 -355 -256 -645zM262 1659 q0 25 17 42t43 17q39 0 81 -57l109 -126q53 -64 49 -69q-5 -5 -65 25.5t-117 64.5l-57 33q-60 29 -60 70z" />
<glyph unicode="&#xc1;" horiz-adv-x="1132" d="M-102 0q42 30 59 49t29 49l549 1315q501 -1237 534 -1315q14 -36 33.5 -57t68.5 -41h-299q77 29 48 98q-121 293 -142 344h-565q-120 -284 -141 -344q-15 -35 -5 -59t48 -39h-217zM240 512h512q-53 129 -117 290.5t-101 257.5l-38 97q-137 -355 -256 -645zM510 1466 q-4 4 35.5 53t80.5 95l42 47q46 57 82 57q25 0 42 -17t17 -42q0 -38 -61 -70l-148 -84q-84 -45 -90 -39z" />
<glyph unicode="&#xc2;" horiz-adv-x="1132" d="M-92 0q42 30 59 49t29 49l549 1315q501 -1237 534 -1315q14 -36 34 -57t69 -41h-299q76 29 47 98q-121 293 -142 344h-565q-120 -284 -141 -344q-15 -35 -5 -59t48 -39h-217zM250 512h512q-53 129 -117 290.5t-101 257.5l-38 97q-137 -355 -256 -645zM272 1446 q-6 7 129.5 129.5t145.5 122.5q12 0 147 -122.5t129 -129.5q-5 -5 -74 27.5t-135 68.5l-67 35l-174 -91q-95 -46 -101 -40z" />
<glyph unicode="&#xc3;" horiz-adv-x="1132" d="M-100 0q42 30 59 49t29 49l549 1315q501 -1237 534 -1315q14 -36 34 -57t69 -41h-300q77 29 48 98q-121 293 -142 344h-565q-120 -284 -141 -344q-15 -35 -5 -59t48 -39h-217zM242 512h512q-53 129 -117 290.5t-101 257.5l-38 97q-137 -355 -256 -645zM264 1487 q2 12 22 33.5t48.5 44.5t68.5 40t76 17q28 0 107.5 -31.5t109.5 -31.5q31 0 57.5 11.5t36.5 22.5l11 11l39 -17q-4 -5 -11 -13t-29.5 -28t-45 -35.5t-54.5 -28t-61 -12.5q-42 0 -88 19t-81.5 38t-51.5 19q-27 0 -55.5 -17t-42.5 -33l-15 -17z" />
<glyph unicode="&#xc4;" horiz-adv-x="1132" d="M-92 0q42 30 59 49t29 49l549 1315q501 -1237 534 -1315q14 -36 34 -57t69 -41h-299q76 29 47 98q-121 293 -142 344h-565q-120 -284 -141 -344q-15 -35 -5 -59t48 -39h-217zM250 512h512q-53 129 -117 290.5t-101 257.5l-38 97q-137 -355 -256 -645zM336 1559 q0 31 21.5 52t52.5 21q32 0 53.5 -21t21.5 -52q0 -32 -22.5 -54t-54.5 -22q-31 0 -51.5 22t-20.5 54zM600 1559q0 31 21.5 52t52.5 21q32 0 54 -21t22 -52q0 -32 -22 -54t-54 -22q-31 0 -52.5 22t-21.5 54z" />
<glyph unicode="&#xc5;" horiz-adv-x="1132" d="M-92 0q42 30 59 49t29 49l549 1315q501 -1237 534 -1315q14 -36 34 -57t69 -41h-299q76 29 47 98q-121 293 -142 344h-565q-120 -284 -141 -344q-15 -35 -5 -59t48 -39h-217zM250 512h512q-53 129 -117 290.5t-101 257.5l-38 97q-137 -355 -256 -645zM422 1559 q0 49 36.5 85.5t86.5 36.5q51 0 88 -36t37 -86q0 -51 -37 -88t-88 -37q-50 0 -86.5 37t-36.5 88zM463 1559q0 -37 23.5 -60.5t58.5 -23.5q37 0 60.5 23.5t23.5 60.5t-23.5 60t-60.5 23q-35 0 -58.5 -23t-23.5 -60z" />
<glyph unicode="&#xc6;" horiz-adv-x="1533" d="M-211 0q20 14 33.5 27t19.5 20.5t18 24.5t19 26q415 575 922 1295h610v-142q-13 24 -53.5 46.5t-81.5 23.5q-116 3 -214.5 3t-139.5 -2l-41 -1v-512h354q22 0 44 18.5t28 38.5v-182q-6 21 -28 39t-44 18h-354v-655q115 -16 209 -16h12h70.5t60 1t53.5 2.5t43.5 4.5 t39.5 8t31.5 12t29 16t23.5 22t24 28t20 35l-35 -199h-766q54 26 54 92v389h-490l-276 -393q-24 -30 -20 -52t42 -36h-217zM305 551h445v649z" />
<glyph unicode="&#xc7;" horiz-adv-x="1404" d="M16 690q0 104 31 206t95.5 195t156 163.5t221.5 112.5t281 42q116 0 230 -33t255 -96q1 -19 3.5 -49.5t6.5 -95t6 -106t1 -38.5q-40 91 -97.5 160t-112 105t-116 58.5t-101.5 28t-77 5.5q-126 0 -231 -33.5t-178.5 -92t-124.5 -138t-75 -170.5t-24 -191 q0 -98 21.5 -191.5t69 -181t117 -153.5t173 -106t229.5 -40h14q32 0 53 0.5t65 7t78 18.5t81.5 37.5t86.5 61.5t82 93.5t79 129.5q1 3 -4.5 -64t-10.5 -135l-6 -69q-114 -74 -247.5 -109.5t-251.5 -37.5l-29 -82q24 0 49 -5t57.5 -19t53 -47t20.5 -81q0 -67 -47.5 -108 t-122.5 -41q-36 0 -63 12t-41 31t-21 34.5t-10 30.5q77 -63 119 -63q46 0 75 30t29 72t-26 69t-64 27q-43 0 -92 -43l84 183q-119 2 -231 35.5t-205.5 96t-164 147.5t-110 195t-39.5 232z" />
<glyph unicode="&#xc8;" horiz-adv-x="899" d="M66 0q55 27 55 92v1208q0 63 -55 93h716v-142q-32 36 -71.5 53t-108.5 17h-352v-512h356q21 0 42.5 18.5t29.5 38.5v-182q-8 21 -29.5 39t-42.5 18h-356v-655q120 -16 209 -16h12q69 0 99.5 0.5t76.5 2.5t65.5 7t47.5 14t43 23t31.5 34t31.5 48l-35 -199h-765zM264 1638 q0 25 17.5 42.5t42.5 17.5q36 0 82 -58l106 -121q56 -68 51 -73t-64.5 25.5t-116.5 64.5l-56 33q-62 32 -62 69z" />
<glyph unicode="&#xc9;" horiz-adv-x="899" d="M66 0q55 27 55 92v1208q0 63 -55 93h716v-142q-32 36 -71.5 53t-108.5 17h-352v-512h356q21 0 42.5 18.5t29.5 38.5v-182q-8 21 -29.5 39t-42.5 18h-356v-655q120 -16 209 -16h12q69 0 99.5 0.5t76.5 2.5t65.5 7t47.5 14t43 23t31.5 34t31.5 48l-35 -199h-765zM344 1446 q-4 4 36 52.5t82 95.5l42 46q46 58 82 58q24 0 40.5 -17.5t16.5 -42.5q0 -41 -59 -69l-149 -84q-85 -45 -91 -39z" />
<glyph unicode="&#xca;" horiz-adv-x="899" d="M66 0q55 27 55 92v1208q0 63 -55 93h716v-142q-32 36 -71.5 53t-108.5 17h-352v-512h356q21 0 42.5 18.5t29.5 38.5v-182q-8 21 -29.5 39t-42.5 18h-356v-655q120 -16 209 -16h12q69 0 99.5 0.5t76.5 2.5t65.5 7t47.5 14t43 23t31.5 34t31.5 48l-35 -199h-765zM154 1446 q-6 7 129 129.5t145 122.5q13 0 147 -122.5t127 -129.5q-5 -5 -73.5 27.5t-134.5 68.5l-66 35l-173 -90q-95 -47 -101 -41z" />
<glyph unicode="&#xcb;" horiz-adv-x="899" d="M66 0q55 27 55 92v1208q0 63 -55 93h716v-142q-32 36 -71.5 53t-108.5 17h-352v-512h356q21 0 42.5 18.5t29.5 38.5v-182q-8 21 -29.5 39t-42.5 18h-356v-655q120 -16 209 -16h12q69 0 99.5 0.5t76.5 2.5t65.5 7t47.5 14t43 23t31.5 34t31.5 48l-35 -199h-765zM242 1559 q0 31 21.5 52t53.5 21q31 0 52.5 -21t21.5 -52q0 -32 -22.5 -54t-53.5 -22q-32 0 -52.5 21.5t-20.5 54.5zM506 1559q0 31 22 52t54 21q31 0 52 -21t21 -52q0 -32 -21 -54t-52 -22q-32 0 -54 22t-22 54z" />
<glyph unicode="&#xcc;" horiz-adv-x="436" d="M35 1638q0 25 17 42.5t42 17.5q36 0 82 -58l106 -121q57 -68 52 -73t-64.5 25.5t-116.5 64.5l-57 33q-61 32 -61 69zM66 0q53 26 53 92v1208q0 64 -53 93h237q-53 -29 -53 -93v-1208q0 -66 53 -92h-237z" />
<glyph unicode="&#xcd;" horiz-adv-x="436" d="M51 1446q-4 4 35.5 52.5t81.5 95.5l41 46q46 58 82 58q25 0 42 -17.5t17 -42.5q0 -37 -61 -69l-148 -84q-84 -45 -90 -39zM66 0q53 26 53 92v1208q0 64 -53 93h237q-53 -29 -53 -93v-1208q0 -66 53 -92h-237z" />
<glyph unicode="&#xce;" horiz-adv-x="436" d="M-84 1446q-7 7 128.5 129.5t145.5 122.5q12 0 146.5 -122.5t128.5 -129.5q-5 -5 -74 27.5t-135 68.5l-66 35l-173 -90q-95 -47 -101 -41zM68 0q53 26 53 92v1208q0 64 -53 93h237q-53 -29 -53 -93v-1208q0 -66 53 -92h-237z" />
<glyph unicode="&#xcf;" horiz-adv-x="436" d="M-20 1559q0 31 21 52t52 21q32 0 54 -21t22 -52q0 -32 -22.5 -54t-53.5 -22q-32 0 -52.5 21.5t-20.5 54.5zM66 0q53 26 53 92v1208q0 64 -53 93h237q-53 -29 -53 -93v-1208q0 -66 53 -92h-237zM244 1559q0 31 21.5 52t53.5 21q31 0 52.5 -21t21.5 -52q0 -32 -21.5 -54 t-52.5 -22q-32 0 -53.5 22t-21.5 54z" />
<glyph unicode="&#xd0;" horiz-adv-x="1390" d="M-2 700v66h125v534q0 64 -53 93h471q141 0 258 -29.5t195 -76t137.5 -110.5t92.5 -126t54 -129t27 -114t6 -87q0 -94 -26.5 -189.5t-89 -192.5t-154.5 -171t-236 -121t-320 -47h-415q53 26 53 92v608h-125zM254 78q67 -4 297 -4q99 0 182.5 19.5t145.5 54t111 83 t81 104.5t53 121.5t30 131t9 135.5q0 82 -18.5 162.5t-62.5 160t-108.5 140t-164.5 98t-223 37.5q-285 0 -332 -6v-549h127v-66h-127v-622z" />
<glyph unicode="&#xd1;" horiz-adv-x="1331" d="M12 1393h207l864 -1092v999q0 65 -55 93h186q-55 -30 -55 -93v-1318q-969 1208 -969 1228v-1118q0 -66 56 -92h-185q56 27 56 92v1165q0 32 -2 40t-11 24q-37 53 -92 72zM371 1487q6 29 76.5 82t138.5 53q30 0 109 -31.5t108 -31.5q31 0 57 11.5t36 22.5l11 11l41 -17 q-4 -5 -11.5 -13t-30 -28t-45.5 -35.5t-55 -28t-61 -12.5q-41 0 -87 19t-82 38t-52 19q-27 0 -55 -17t-43 -33l-14 -17z" />
<glyph unicode="&#xd2;" d="M16 719q3 96 37 194.5t101 189.5t156.5 161t213 110t262.5 35q101 -3 202.5 -35t194.5 -94t163.5 -146.5t111 -202.5t35.5 -251q-4 -132 -53.5 -248t-128 -198t-176 -140.5t-200 -85.5t-198.5 -24q-143 5 -276 62.5t-233.5 152t-158.5 231t-53 289.5zM168 723 q0 -111 25 -208.5t68.5 -169t100.5 -128t123.5 -91.5t134.5 -53t136 -18q256 0 416.5 173.5t160.5 445.5q0 297 -160.5 482t-414.5 185q-126 0 -234 -43t-187 -121.5t-124 -195.5t-45 -258zM565 1638q0 25 16.5 42.5t41.5 17.5q36 0 82 -58l111 -126q52 -63 48 -68 q-5 -5 -65 25.5t-117 64.5l-57 33q-60 29 -60 69z" />
<glyph unicode="&#xd3;" d="M16 719q3 96 37 194.5t101 189.5t156.5 161t213 110t262.5 35q101 -3 202.5 -35t194.5 -94t163.5 -146.5t111 -202.5t35.5 -251q-4 -132 -53.5 -248t-128 -198t-176 -140.5t-200 -85.5t-198.5 -24q-143 5 -276 62.5t-233.5 152t-158.5 231t-53 289.5zM168 723 q0 -111 25 -208.5t68.5 -169t100.5 -128t123.5 -91.5t134.5 -53t136 -18q256 0 416.5 173.5t160.5 445.5q0 297 -160.5 482t-414.5 185q-126 0 -234 -43t-187 -121.5t-124 -195.5t-45 -258zM645 1446q-4 4 36 52.5t82 95.5l42 46q46 58 82 58q25 0 42 -17.5t17 -42.5 q0 -37 -61 -69l-149 -84q-85 -45 -91 -39z" />
<glyph unicode="&#xd4;" d="M16 719q3 96 37 194.5t101 189.5t156.5 161t213 110t262.5 35q101 -3 202.5 -35t194.5 -94t163.5 -146.5t111 -202.5t35.5 -251q-4 -132 -53.5 -248t-128 -198t-176 -140.5t-200 -85.5t-198.5 -24q-143 5 -276 62.5t-233.5 152t-158.5 231t-53 289.5zM168 723 q0 -111 25 -208.5t68.5 -169t100.5 -128t123.5 -91.5t134.5 -53t136 -18q256 0 416.5 173.5t160.5 445.5q0 297 -160.5 482t-414.5 185q-126 0 -234 -43t-187 -121.5t-124 -195.5t-45 -258zM483 1446q-7 7 129 129.5t146 122.5q12 0 146 -122.5t128 -129.5q-5 -5 -73.5 27.5 t-134.5 68.5l-66 35l-174 -91q-95 -46 -101 -40z" />
<glyph unicode="&#xd5;" d="M16 719q3 96 37 194.5t101 189.5t156.5 161t213 110t262.5 35q101 -3 202.5 -35t194.5 -94t163.5 -146.5t111 -202.5t35.5 -251q-4 -132 -53.5 -248t-128 -198t-176 -140.5t-200 -85.5t-198.5 -24q-143 5 -276 62.5t-233.5 152t-158.5 231t-53 289.5zM168 723 q0 -111 25 -208.5t68.5 -169t100.5 -128t123.5 -91.5t134.5 -53t136 -18q256 0 416.5 173.5t160.5 445.5q0 297 -160.5 482t-414.5 185q-126 0 -234 -43t-187 -121.5t-124 -195.5t-45 -258zM475 1487q6 29 76.5 82t138.5 53q30 0 109 -31.5t108 -31.5q31 0 57.5 11.5 t37.5 22.5l10 11l41 -17q-4 -5 -11.5 -13t-30 -28t-45.5 -35.5t-55 -28t-61 -12.5q-42 0 -88 19t-81.5 38t-51.5 19q-27 0 -55.5 -17t-43.5 -33l-14 -17z" />
<glyph unicode="&#xd6;" d="M16 719q3 96 37 194.5t101 189.5t156.5 161t213 110t262.5 35q101 -3 202.5 -35t194.5 -94t163.5 -146.5t111 -202.5t35.5 -251q-4 -132 -53.5 -248t-128 -198t-176 -140.5t-200 -85.5t-198.5 -24q-143 5 -276 62.5t-233.5 152t-158.5 231t-53 289.5zM168 723 q0 -111 25 -208.5t68.5 -169t100.5 -128t123.5 -91.5t134.5 -53t136 -18q256 0 416.5 173.5t160.5 445.5q0 297 -160.5 482t-414.5 185q-126 0 -234 -43t-187 -121.5t-124 -195.5t-45 -258zM549 1559q0 31 21.5 52t52.5 21q32 0 53.5 -21t21.5 -52q0 -32 -22 -54t-53 -22 q-32 0 -53 22t-21 54zM813 1559q0 31 22 52t54 21q31 0 52.5 -21t21.5 -52q0 -32 -21.5 -54t-52.5 -22q-32 0 -54 22t-22 54z" />
<glyph unicode="&#xd7;" horiz-adv-x="1052" d="M72 444l338 340l-338 338l80 82l340 -340l335 340l84 -82l-338 -338l338 -340l-84 -79l-335 337l-340 -337z" />
<glyph unicode="&#xd8;" d="M18 719q3 96 37 194t101 188.5t156.5 160.5t213 110t262.5 37q210 -7 388 -123l88 107h116q-14 -13 -137 -156q122 -97 190 -238.5t62 -318.5q-4 -132 -53.5 -248t-128 -197.5t-176.5 -140t-200 -85.5t-198 -25q-237 6 -430 147q-16 -19 -34.5 -41t-29.5 -35.5t-21.5 -26 t-15.5 -19.5t-5 -9h-121q20 20 160 186q-110 102 -170 238.5t-54 294.5zM170 723q0 -274 145 -453q299 347 801 942q-147 129 -356 129q-126 0 -234 -43t-187 -121.5t-124 -195.5t-45 -258zM373 207q83 -74 184.5 -113t200.5 -39q256 0 416.5 173.5t160.5 445.5 q0 295 -159 481q-569 -667 -803 -948z" />
<glyph unicode="&#xd9;" horiz-adv-x="1208" d="M47 1393h262q-65 -35 -65 -93v-874q0 -48 7 -92t30 -97t60 -91.5t104.5 -64.5t156.5 -26q88 0 156.5 21t110.5 54.5t69 81.5t37 97t10 105l-4 886q0 64 -53 93h188q-53 -29 -53 -93l-10 -882q-1 -93 -27 -167.5t-69 -123.5t-102.5 -82t-125 -47t-139.5 -14 q-66 0 -130.5 14t-128 47.5t-111.5 83t-77.5 126t-29.5 171.5v874q0 57 -66 93zM403 1638q0 25 17.5 42.5t42.5 17.5q36 0 82 -58l109 -126q52 -63 48 -68q-5 -5 -64.5 25.5t-115.5 64.5l-57 33q-62 32 -62 69z" />
<glyph unicode="&#xda;" horiz-adv-x="1208" d="M47 1393h262q-65 -35 -65 -93v-874q0 -48 7 -92t30 -97t60 -91.5t104.5 -64.5t156.5 -26q88 0 156.5 21t110.5 54.5t69 81.5t37 97t10 105l-4 886q0 64 -53 93h188q-53 -29 -53 -93l-10 -882q-1 -93 -27 -167.5t-69 -123.5t-102.5 -82t-125 -47t-139.5 -14 q-66 0 -130.5 14t-128 47.5t-111.5 83t-77.5 126t-29.5 171.5v874q0 57 -66 93zM487 1446q-4 4 35.5 52.5t81.5 95.5l41 46q46 58 82 58q25 0 42 -17.5t17 -42.5q0 -37 -61 -69l-148 -84q-84 -45 -90 -39z" />
<glyph unicode="&#xdb;" horiz-adv-x="1208" d="M47 1393h262q-65 -35 -65 -93v-874q0 -48 7 -92t30 -97t60 -91.5t104.5 -64.5t156.5 -26q88 0 156.5 21t110.5 54.5t69 81.5t37 97t10 105l-4 886q0 64 -53 93h188q-53 -29 -53 -93l-10 -882q-1 -93 -27 -167.5t-69 -123.5t-102.5 -82t-125 -47t-139.5 -14 q-66 0 -130.5 14t-128 47.5t-111.5 83t-77.5 126t-29.5 171.5v874q0 57 -66 93zM332 1446q-6 7 129 129.5t145 122.5q12 0 147.5 -122.5t129.5 -129.5q-5 -5 -74.5 27.5t-136.5 68.5l-66 35l-173 -90q-95 -47 -101 -41z" />
<glyph unicode="&#xdc;" horiz-adv-x="1208" d="M47 1393h262q-65 -35 -65 -93v-874q0 -48 7 -92t30 -97t60 -91.5t104.5 -64.5t156.5 -26q88 0 156.5 21t110.5 54.5t69 81.5t37 97t10 105l-4 886q0 64 -53 93h188q-53 -29 -53 -93l-10 -882q-1 -93 -27 -167.5t-69 -123.5t-102.5 -82t-125 -47t-139.5 -14 q-66 0 -130.5 14t-128 47.5t-111.5 83t-77.5 126t-29.5 171.5v874q0 57 -66 93zM401 1559q0 31 22 52t54 21q31 0 52.5 -21t21.5 -52q0 -32 -22.5 -54t-53.5 -22q-32 0 -53 22t-21 54zM666 1559q0 31 21.5 52t53.5 21q31 0 52.5 -21t21.5 -52q0 -32 -21.5 -54t-52.5 -22 q-32 0 -53.5 22t-21.5 54z" />
<glyph unicode="&#xdd;" horiz-adv-x="907" d="M-147 1393h331q-17 -7 -21.5 -8.5t-17.5 -8.5t-15.5 -12l-7.5 -15t-2 -20.5t9 -26.5t18 -36l310 -512l282 540q17 32 16.5 51t-12.5 28t-41 20h230q-46 -22 -69.5 -42.5t-43.5 -56.5l-330 -622v-580q0 -57 72 -92h-285q74 36 74 92v574l-379 628q-20 35 -45.5 55 t-72.5 44zM393 1466q-4 4 35.5 53t81.5 95l41 47q46 57 82 57q25 0 42 -17t17 -42q0 -38 -61 -70l-148 -84q-84 -45 -90 -39z" />
<glyph unicode="&#xde;" horiz-adv-x="931" d="M66 0q55 27 55 92v1208q0 64 -53 93h237q-53 -29 -53 -93v-227h135q117 0 209 -25t146.5 -64t90.5 -91.5t49 -101.5t13 -99q0 -63 -19.5 -120t-46.5 -95.5t-62.5 -70.5t-61.5 -48.5t-50 -27.5q-40 -19 -99 -32t-146.5 -9t-159.5 37v-234q0 -65 55 -92h-239zM250 369 q48 -19 119 -19q34 0 67.5 4t80 15.5t85.5 35.5t73.5 59.5t54.5 93t20 130.5q0 158 -88 239t-250 81q-55 0 -95.5 -2t-53.5 -4l-13 -1v-632z" />
<glyph unicode="&#xdf;" horiz-adv-x="1013" d="M47 0q29 14 41 29t12 47v950q0 53 9.5 102.5t36 102t67 91t107.5 63t153 24.5q141 0 232.5 -85.5t91.5 -217.5q0 -110 -71.5 -200t-188.5 -130q72 -6 141 -35t127 -77.5t93.5 -121.5t35.5 -159q0 -59 -17 -116t-59 -112t-103.5 -95t-158.5 -61.5t-217 -14.5q-88 0 -113 6 v61q36 -5 78.5 -5t95 6.5t102.5 20.5t98 41t83.5 64.5t57.5 94t22 126.5q0 84 -30 146.5t-77.5 98.5t-113.5 56.5t-129.5 25.5t-135.5 1v68q177 9 269 92t92 213q0 98 -69 173t-165 75q-66 0 -114.5 -32t-72 -83t-34 -99.5t-10.5 -97.5v-1036h-166z" />
<glyph unicode="&#xe0;" horiz-adv-x="829" d="M4 229q0 148 135 230q46 28 222 81t208 93v82q0 32 -9.5 62.5t-30.5 59t-59.5 45.5t-90.5 17q-66 0 -114 -20t-81.5 -63.5t-54 -88t-45.5 -117.5l-6 236q70 55 103 72q78 40 194 40q39 0 76.5 -5.5t80 -22t74 -43t52 -72.5t20.5 -106v-574v-9q0 -20 1 -29.5t6 -22.5 t18.5 -19.5t35.5 -9.5l-104 -63q-39 29 -52.5 58t-13.5 105q-152 -161 -329 -161q-52 0 -94 18t-68 45.5t-43 61.5t-24 64t-7 56zM121 258q0 -88 44 -135t126 -47q156 0 278 129v346q-19 -10 -38 -18.5t-46.5 -18t-43 -14.5t-57.5 -18t-60 -19q-96 -30 -149.5 -77 t-53.5 -128zM172 1212q0 26 16.5 43t42.5 17q15 0 31.5 -10t25.5 -19.5t25 -28.5l109 -124q53 -63 49 -68q-5 -5 -65 25t-118 63l-57 33q-59 28 -59 69z" />
<glyph unicode="&#xe1;" horiz-adv-x="829" d="M4 229q0 148 135 230q46 28 222 81t208 93v82q0 32 -9.5 62.5t-30.5 59t-59.5 45.5t-90.5 17q-66 0 -114 -20t-81.5 -63.5t-54 -88t-45.5 -117.5l-6 236q70 55 103 72q78 40 194 40q39 0 76.5 -5.5t80 -22t74 -43t52 -72.5t20.5 -106v-574v-9q0 -20 1 -29.5t6 -22.5 t18.5 -19.5t35.5 -9.5l-104 -63q-39 29 -52.5 58t-13.5 105q-152 -161 -329 -161q-52 0 -94 18t-68 45.5t-43 61.5t-24 64t-7 56zM121 258q0 -88 44 -135t126 -47q156 0 278 129v346q-19 -10 -38 -18.5t-46.5 -18t-43 -14.5t-57.5 -18t-60 -19q-96 -30 -149.5 -77 t-53.5 -128zM252 1022q-4 4 35.5 52t80.5 94l42 46q43 58 82 58q25 0 42 -17t17 -43q0 -37 -62 -69l-148 -83q-83 -44 -89 -38z" />
<glyph unicode="&#xe2;" horiz-adv-x="829" d="M4 229q0 148 135 230q46 28 222 81t208 93v82q0 32 -9.5 62.5t-30.5 59t-59.5 45.5t-90.5 17q-66 0 -114 -20t-81.5 -63.5t-54 -88t-45.5 -117.5l-6 236q70 55 103 72q78 40 194 40q39 0 76.5 -5.5t80 -22t74 -43t52 -72.5t20.5 -106v-574v-9q0 -20 1 -29.5t6 -22.5 t18.5 -19.5t35.5 -9.5l-104 -63q-39 29 -52.5 58t-13.5 105q-152 -161 -329 -161q-52 0 -94 18t-68 45.5t-43 61.5t-24 64t-7 56zM92 1022q-7 7 129 128.5t146 121.5q12 0 146 -121.5t128 -128.5q-5 -5 -73.5 27.5t-134.5 68.5l-66 35l-174 -91q-95 -46 -101 -40zM121 258 q0 -88 44 -135t126 -47q156 0 278 129v346q-19 -10 -38 -18.5t-46.5 -18t-43 -14.5t-57.5 -18t-60 -19q-96 -30 -149.5 -77t-53.5 -128z" />
<glyph unicode="&#xe3;" horiz-adv-x="829" d="M4 229q0 148 135 230q46 28 222 81t208 93v82q0 32 -9.5 62.5t-30.5 59t-59.5 45.5t-90.5 17q-66 0 -114 -20t-81.5 -63.5t-54 -88t-45.5 -117.5l-6 236q70 55 103 72q78 40 194 40q39 0 76.5 -5.5t80 -22t74 -43t52 -72.5t20.5 -106v-574v-9q0 -20 1 -29.5t6 -22.5 t18.5 -19.5t35.5 -9.5l-104 -63q-39 29 -52.5 58t-13.5 105q-152 -161 -329 -161q-52 0 -94 18t-68 45.5t-43 61.5t-24 64t-7 56zM98 1075q6 29 72.5 79t130.5 50q29 0 105 -30.5t104 -30.5q29 0 53.5 10.5t34.5 21.5l10 11l39 -15q-4 -4 -10.5 -11.5t-28 -26.5t-43 -33.5 t-52 -26.5t-58.5 -12q-40 0 -83.5 17.5t-77.5 34.5t-50 17q-25 0 -52 -15t-41 -31l-14 -15zM121 258q0 -88 44 -135t126 -47q156 0 278 129v346q-19 -10 -38 -18.5t-46.5 -18t-43 -14.5t-57.5 -18t-60 -19q-96 -30 -149.5 -77t-53.5 -128z" />
<glyph unicode="&#xe4;" horiz-adv-x="829" d="M4 229q0 148 135 230q46 28 222 81t208 93v82q0 32 -9.5 62.5t-30.5 59t-59.5 45.5t-90.5 17q-66 0 -114 -20t-81.5 -63.5t-54 -88t-45.5 -117.5l-6 236q70 55 103 72q78 40 194 40q39 0 76.5 -5.5t80 -22t74 -43t52 -72.5t20.5 -106v-574v-9q0 -20 1 -29.5t6 -22.5 t18.5 -19.5t35.5 -9.5l-104 -63q-39 29 -52.5 58t-13.5 105q-152 -161 -329 -161q-52 0 -94 18t-68 45.5t-43 61.5t-24 64t-7 56zM121 258q0 -88 44 -135t126 -47q156 0 278 129v346q-19 -10 -38 -18.5t-46.5 -18t-43 -14.5t-57.5 -18t-60 -19q-96 -30 -149.5 -77 t-53.5 -128zM164 1143q0 31 22 52.5t54 21.5q31 0 52 -21.5t21 -52.5q0 -32 -22 -54t-53 -22t-52.5 22t-21.5 54zM430 1143q0 31 21.5 52.5t52.5 21.5t53.5 -21.5t22.5 -52.5q0 -32 -22.5 -54t-53.5 -22t-52.5 22t-21.5 54z" />
<glyph unicode="&#xe5;" horiz-adv-x="829" d="M4 229q0 148 135 230q46 28 222 81t208 93v82q0 32 -9.5 62.5t-30.5 59t-59.5 45.5t-90.5 17q-66 0 -114 -20t-81.5 -63.5t-54 -88t-45.5 -117.5l-6 236q70 55 103 72q78 40 194 40q39 0 76.5 -5.5t80 -22t74 -43t52 -72.5t20.5 -106v-574v-9q0 -20 1 -29.5t6 -22.5 t18.5 -19.5t35.5 -9.5l-104 -63q-39 29 -52.5 58t-13.5 105q-152 -161 -329 -161q-52 0 -94 18t-68 45.5t-43 61.5t-24 64t-7 56zM121 258q0 -88 44 -135t126 -47q156 0 278 129v346q-19 -10 -38 -18.5t-46.5 -18t-43 -14.5t-57.5 -18t-60 -19q-96 -30 -149.5 -77 t-53.5 -128zM252 1145q0 51 36.5 88t86.5 37t87.5 -37t37.5 -88q0 -49 -37.5 -86t-87.5 -37q-49 0 -86 37t-37 86zM291 1145q0 -37 23.5 -60.5t60.5 -23.5t60.5 23.5t23.5 60.5t-23.5 60.5t-60.5 23.5t-60.5 -23.5t-23.5 -60.5z" />
<glyph unicode="&#xe6;" horiz-adv-x="1427" d="M4 229q0 148 135 230q46 28 222 81t208 93v72q0 32 -9.5 62t-30.5 58t-59.5 45t-90.5 17q-53 0 -95 -14.5t-70.5 -37t-53.5 -62.5t-40.5 -77.5t-35.5 -95.5l-6 236l22.5 18t23.5 18.5t23 16.5t27 16.5t28 13.5t34 12.5t37.5 8.5t46 6.5t51.5 1.5q52 0 100 -16t77 -35 t60.5 -35t53.5 -16q25 0 55.5 16t59.5 35t89.5 35t139.5 16q45 0 91.5 -13.5t93 -45t82.5 -76.5t58.5 -114t22.5 -152h-674q0 -10 -1 -32t-1 -32q0 -185 88.5 -297t251.5 -112q103 0 204.5 73t133.5 152q-11 -129 -116.5 -226.5t-250.5 -97.5q-74 0 -133 18.5t-94 45 t-61.5 53.5t-48 45.5t-40.5 18.5q-18 0 -41.5 -17.5t-52.5 -43t-65 -51t-92 -43t-121 -17.5q-52 0 -94 18t-68 45.5t-43 61.5t-24 64t-7 56zM121 258q0 -88 44 -135t126 -47q171 0 256 143q15 24 20.5 107t3.5 154l-2 71q-19 -10 -38 -18.5t-46.5 -18t-43 -14.5t-57.5 -18 t-60 -19q-96 -30 -149.5 -77t-53.5 -128zM686 600l537 2q0 81 -22 139.5t-61 89t-82 43.5t-95 13q-63 0 -113.5 -23.5t-82.5 -65.5t-51.5 -90.5t-29.5 -107.5z" />
<glyph unicode="&#xe7;" horiz-adv-x="831" d="M20 467q0 62 16.5 127.5t53 131t88.5 117t129.5 83.5t169.5 32q55 0 119.5 -20t101.5 -40l37 -21v-242q-36 119 -115 193.5t-174 74.5q-64 0 -116.5 -26.5t-86.5 -69t-58 -97t-34 -109t-10 -107.5q0 -108 36.5 -199.5t114.5 -152t185 -60.5q47 0 90.5 11t70 22t59.5 35.5 t41.5 32.5t33.5 32q-3 -25 -23 -61t-57 -75.5t-101.5 -67t-141.5 -27.5h-27l-31 -82q24 0 49 -5t57.5 -19t53 -47t20.5 -81q0 -67 -47.5 -108t-122.5 -41q-36 0 -63 12t-41 31t-21 34.5t-10 30.5q77 -63 119 -63q46 0 75 30t29 72t-26 69t-64 27q-43 0 -92 -43l86 187 q-93 11 -166.5 59.5t-117.5 118t-66.5 147t-22.5 154.5z" />
<glyph unicode="&#xe8;" horiz-adv-x="903" d="M18 463q0 62 16.5 128t53 132t88.5 118t129.5 84.5t169.5 32.5q44 0 90.5 -13.5t93.5 -45t83.5 -76.5t59.5 -114t23 -152h-671q0 -10 -1 -32.5t-1 -32.5q0 -187 87.5 -299.5t249.5 -112.5q105 0 206.5 73t131.5 154q-9 -129 -114 -226t-250 -97q-86 0 -160.5 30 t-125.5 78.5t-88 111.5t-54 129t-17 130zM160 610h536q0 82 -21 141t-58 91t-79.5 46.5t-93.5 14.5q-63 0 -114.5 -24.5t-85 -67.5t-54 -93t-30.5 -108zM295 1212q0 26 17 43t42 17q39 0 82 -58l105 -118q58 -69 53 -74t-64.5 25t-116.5 63l-57 33q-61 32 -61 69z" />
<glyph unicode="&#xe9;" horiz-adv-x="905" d="M18 463q0 62 16.5 128t53 132t88.5 118t129.5 84.5t169.5 32.5q44 0 90.5 -13.5t93.5 -45t83.5 -76.5t59.5 -114t23 -152h-671q0 -10 -1 -32.5t-1 -32.5q0 -187 87.5 -299.5t249.5 -112.5q105 0 206.5 73t131.5 154q-9 -129 -114 -226t-250 -97q-86 0 -160.5 30 t-125.5 78.5t-88 111.5t-54 129t-17 130zM160 610h536q0 82 -21 141t-58 91t-79.5 46.5t-93.5 14.5q-63 0 -114.5 -24.5t-85 -67.5t-54 -93t-30.5 -108zM324 1022q-4 4 35.5 52t80.5 94l41 46q43 58 82 58q25 0 42.5 -17t17.5 -43q0 -37 -62 -69l-148 -83q-83 -44 -89 -38z " />
<glyph unicode="&#xea;" horiz-adv-x="903" d="M18 463q0 62 16.5 128t53 132t88.5 118t129.5 84.5t169.5 32.5q44 0 90.5 -13.5t93.5 -45t83.5 -76.5t59.5 -114t23 -152h-671q0 -10 -1 -32.5t-1 -32.5q0 -187 87.5 -299.5t249.5 -112.5q105 0 206.5 73t131.5 154q-9 -129 -114 -226t-250 -97q-86 0 -160.5 30 t-125.5 78.5t-88 111.5t-54 129t-17 130zM160 610h536q0 82 -21 141t-58 91t-79.5 46.5t-93.5 14.5q-63 0 -114.5 -24.5t-85 -67.5t-54 -93t-30.5 -108zM178 1022q-6 7 130.5 128.5t146.5 121.5q11 0 145.5 -121.5t128.5 -128.5q-5 -5 -73.5 27.5t-134.5 68.5l-66 35 l-175 -91q-96 -46 -102 -40z" />
<glyph unicode="&#xeb;" horiz-adv-x="903" d="M18 463q0 62 16.5 128t53 132t88.5 118t129.5 84.5t169.5 32.5q44 0 90.5 -13.5t93.5 -45t83.5 -76.5t59.5 -114t23 -152h-671q0 -10 -1 -32.5t-1 -32.5q0 -187 87.5 -299.5t249.5 -112.5q105 0 206.5 73t131.5 154q-9 -129 -114 -226t-250 -97q-86 0 -160.5 30 t-125.5 78.5t-88 111.5t-54 129t-17 130zM160 610h536q0 82 -21 141t-58 91t-79.5 46.5t-93.5 14.5q-63 0 -114.5 -24.5t-85 -67.5t-54 -93t-30.5 -108zM238 1143q0 31 21.5 52.5t53.5 21.5q31 0 52.5 -21.5t21.5 -52.5q0 -32 -22.5 -54t-53.5 -22q-32 0 -52.5 21.5 t-20.5 54.5zM502 1143q0 31 22.5 52.5t53.5 21.5t52 -21.5t21 -52.5q0 -32 -21 -54t-52 -22t-53.5 22t-22.5 54z" />
<glyph unicode="&#xec;" horiz-adv-x="378" d="M-27 1212q0 26 17.5 43t42.5 17q15 0 31.5 -10t25.5 -19.5t25 -28.5l109 -124q52 -63 48 -68q-5 -5 -65 25t-117 63l-57 33q-60 29 -60 69zM33 909l186 49v-882q0 -32 13 -47t42 -29h-221q29 14 41 29t12 47v753q0 18 -5 31.5t-9.5 20.5t-18.5 14t-18 8t-22 6z" />
<glyph unicode="&#xed;" horiz-adv-x="378" d="M4 1022q-4 4 35.5 52t80.5 94l42 46q16 19 25 28.5t25.5 19.5t31.5 10q25 0 42 -17t17 -43q0 -37 -61 -69l-148 -83q-83 -44 -90 -38zM33 909l186 49v-882q0 -32 13 -47t42 -29h-221q29 14 41 29t12 47v753q0 18 -5 31.5t-9.5 20.5t-18.5 14t-18 8t-22 6z" />
<glyph unicode="&#xee;" horiz-adv-x="378" d="M-109 1022q-6 7 129.5 128.5t145.5 121.5q8 0 78 -60.5t135.5 -122.5t60.5 -67t-73.5 27.5t-134.5 68.5l-66 35l-174 -91q-95 -46 -101 -40zM33 909l186 49v-882q0 -32 13 -47t42 -29h-221q29 14 41 29t12 47v753q0 18 -5 31.5t-9.5 20.5t-18.5 14t-18 8t-22 6z" />
<glyph unicode="&#xef;" horiz-adv-x="378" d="M-55 1143q0 31 21.5 52.5t53.5 21.5q31 0 52.5 -21.5t21.5 -52.5q0 -32 -22.5 -54t-53.5 -22q-32 0 -52.5 21.5t-20.5 54.5zM31 909l186 49v-882q0 -32 13 -47t42 -29h-221q29 14 41 29t12 47v753q0 18 -5 31.5t-9.5 20.5t-18.5 14t-18 8t-22 6zM209 1143q0 31 22 52.5 t54 21.5q31 0 52 -21.5t21 -52.5q0 -32 -21 -54t-52 -22q-32 0 -54 22t-22 54z" />
<glyph unicode="&#xf0;" horiz-adv-x="942" d="M18 477q1 86 30.5 170.5t82.5 154t134.5 113t176.5 43.5q45 0 84.5 -7t66 -18t48.5 -25t35 -27.5t22 -24.5t12 -18l3 -7q-16 187 -129 338l-273 -73v65l226 62q-113 116 -261 116q-84 0 -122.5 -11t-92.5 -44q17 46 91 85.5t170 39.5q185 0 327 -158l193 54v-66l-150 -41 q86 -116 132 -270t46 -307q0 -299 -119.5 -468t-316.5 -169q-104 1 -187 46t-131.5 117.5t-73.5 157t-24 172.5zM145 459q3 -79 24 -152.5t58.5 -134.5t97 -96.5t132.5 -32.5q74 4 130.5 44.5t88 104.5t45.5 139t10 154q-4 80 -25 153.5t-57.5 135t-96 97t-132.5 32.5 q-73 -4 -129 -44.5t-88 -105t-46.5 -139.5t-11.5 -155z" />
<glyph unicode="&#xf1;" horiz-adv-x="952" d="M31 909l186 49v-153q38 47 121 100t170 53q72 0 138 -30t111.5 -93.5t45.5 -146.5v-612q0 -32 12 -47t41 -29h-217q29 14 41 29t12 47v538q0 252 -243 252q-67 0 -127 -35t-105 -83v-672q0 -32 13 -47t42 -29h-221q29 14 41 29t12 47v753q0 18 -5 31.5t-9.5 20.5 t-18.5 14t-18 8t-22 6zM195 1075q4 28 70 78.5t132 50.5q27 0 103 -30.5t104 -30.5q29 0 54.5 10.5t35.5 21.5l11 11l36 -15q-4 -4 -10.5 -11.5t-28 -26.5t-42.5 -33.5t-51.5 -26.5t-57.5 -12q-40 0 -84 17.5t-78 34.5t-49 17q-26 0 -53.5 -15t-41.5 -31l-14 -15z" />
<glyph unicode="&#xf2;" horiz-adv-x="944" d="M20 477q1 86 30.5 171t82.5 154.5t134.5 113t176.5 42.5q87 -1 159 -30.5t119.5 -77.5t80 -112t46.5 -131.5t13 -137.5q-1 -84 -32 -170t-84.5 -156t-135 -114.5t-174.5 -44.5q-104 1 -187 46t-131.5 117.5t-73.5 157t-24 172.5zM147 459q3 -79 24 -152.5t58.5 -134.5 t97 -96.5t132.5 -32.5q74 4 130.5 44.5t88 104.5t45.5 139t10 154q-4 80 -25 153.5t-57.5 135t-96 97t-132.5 32.5q-73 -4 -129 -44.5t-88 -105t-46.5 -139.5t-11.5 -155zM260 1212q0 26 17 43t42 17q39 0 82 -58l105 -118q58 -69 53 -74t-64.5 25t-116.5 63l-56 33 q-62 32 -62 69z" />
<glyph unicode="&#xf3;" horiz-adv-x="942" d="M18 477q1 86 30.5 171t82.5 154.5t134.5 113t176.5 42.5q87 -1 159 -30.5t119.5 -77.5t80 -112t46.5 -131.5t13 -137.5q-1 -84 -32 -170t-84.5 -156t-135 -114.5t-174.5 -44.5q-104 1 -187 46t-131.5 117.5t-73.5 157t-24 172.5zM145 459q3 -79 24 -152.5t58.5 -134.5 t97 -96.5t132.5 -32.5q74 4 130.5 44.5t88 104.5t45.5 139t10 154q-4 80 -25 153.5t-57.5 135t-96 97t-132.5 32.5q-73 -4 -129 -44.5t-88 -105t-46.5 -139.5t-11.5 -155zM303 1022q-4 4 36 52t82 94l42 46q43 58 82 58q25 0 42 -17t17 -43q0 -37 -61 -69l-150 -84 q-84 -43 -90 -37z" />
<glyph unicode="&#xf4;" horiz-adv-x="944" d="M20 477q1 86 30.5 171t82.5 154.5t134.5 113t176.5 42.5q87 -1 159 -30.5t119.5 -77.5t80 -112t46.5 -131.5t13 -137.5q-1 -84 -32 -170t-84.5 -156t-135 -114.5t-174.5 -44.5q-104 1 -187 46t-131.5 117.5t-73.5 157t-24 172.5zM147 459q3 -79 24 -152.5t58.5 -134.5 t97 -96.5t132.5 -32.5q74 4 130.5 44.5t88 104.5t45.5 139t10 154q-4 80 -25 153.5t-57.5 135t-96 97t-132.5 32.5q-73 -4 -129 -44.5t-88 -105t-46.5 -139.5t-11.5 -155zM164 1022q-7 7 128.5 128.5t145.5 121.5q12 0 146.5 -121.5t128.5 -128.5q-5 -5 -74 27.5t-135 68.5 l-66 35l-173 -90q-95 -47 -101 -41z" />
<glyph unicode="&#xf5;" horiz-adv-x="944" d="M20 477q1 86 30.5 171t82.5 154.5t134.5 113t176.5 42.5q87 -1 159 -30.5t119.5 -77.5t80 -112t46.5 -131.5t13 -137.5q-1 -84 -32 -170t-84.5 -156t-135 -114.5t-174.5 -44.5q-104 1 -187 46t-131.5 117.5t-73.5 157t-24 172.5zM147 459q3 -79 24 -152.5t58.5 -134.5 t97 -96.5t132.5 -32.5q74 4 130.5 44.5t88 104.5t45.5 139t10 154q-4 80 -25 153.5t-57.5 135t-96 97t-132.5 32.5q-73 -4 -129 -44.5t-88 -105t-46.5 -139.5t-11.5 -155zM170 1075q6 29 72.5 79t130.5 50q29 0 105 -30.5t104 -30.5q29 0 53.5 10.5t34.5 21.5l10 11l39 -15 q-4 -4 -11 -11.5t-28 -26.5t-43 -33.5t-52.5 -26.5t-58.5 -12q-40 0 -83.5 17.5t-77.5 34.5t-50 17q-25 0 -51.5 -15t-40.5 -31l-14 -15z" />
<glyph unicode="&#xf6;" horiz-adv-x="944" d="M20 477q1 86 30.5 171t82.5 154.5t134.5 113t176.5 42.5q87 -1 159 -30.5t119.5 -77.5t80 -112t46.5 -131.5t13 -137.5q-1 -84 -32 -170t-84.5 -156t-135 -114.5t-174.5 -44.5q-104 1 -187 46t-131.5 117.5t-73.5 157t-24 172.5zM147 459q3 -79 24 -152.5t58.5 -134.5 t97 -96.5t132.5 -32.5q74 4 130.5 44.5t88 104.5t45.5 139t10 154q-4 80 -25 153.5t-57.5 135t-96 97t-132.5 32.5q-73 -4 -129 -44.5t-88 -105t-46.5 -139.5t-11.5 -155zM231 1143q0 31 21.5 52.5t52.5 21.5q32 0 54 -21.5t22 -52.5q0 -32 -23 -54t-55 -22q-31 0 -51.5 22 t-20.5 54zM496 1143q0 31 21.5 52.5t53.5 21.5q31 0 52.5 -21.5t21.5 -52.5q0 -32 -21.5 -54t-52.5 -22q-32 0 -53.5 22t-21.5 54z" />
<glyph unicode="&#xf7;" horiz-adv-x="876" d="M68 649v90h682v-90h-682zM330 461q0 31 21.5 53.5t51.5 22.5q32 0 54 -22.5t22 -53.5t-22 -53.5t-54 -22.5q-30 0 -51.5 22.5t-21.5 53.5zM330 928q0 32 21 54t52 22q32 0 54 -22t22 -54q0 -31 -22 -52.5t-54 -21.5q-31 0 -52 21.5t-21 52.5z" />
<glyph unicode="&#xf8;" horiz-adv-x="944" d="M20 477q0 85 30 170t82.5 154.5t134.5 113t177 43.5q145 0 242 -75l53 75h80q-67 -90 -86 -116q64 -72 96.5 -171t32.5 -202q0 -84 -31 -170t-84.5 -156t-135.5 -114.5t-175 -44.5q-148 0 -260 94l-51 -78h-82q38 50 90 125q-113 145 -113 352zM147 459q3 -129 56 -238 q76 103 233.5 319.5t192.5 264.5q-87 103 -207 98q-73 -2 -129 -42.5t-87.5 -105.5t-46 -140.5t-12.5 -155.5zM238 158q91 -120 221 -115q74 2 130 42.5t87 105.5t45 139.5t12 154.5q-3 144 -69 263q-9 -13 -426 -590z" />
<glyph unicode="&#xf9;" horiz-adv-x="956" d="M18 909l187 49v-593q0 -130 61.5 -208.5t163.5 -78.5q40 0 72 6.5t65 26t48 30.5t53 43q3 2 5 3.5t4.5 3.5t4.5 4v634q0 54 -44 71q-5 2 -28 9l185 49v-823q0 -96 82 -106l-127 -45q-24 18 -31.5 24.5t-19 23.5t-14.5 39t-3 58q-126 -145 -299 -145q-35 0 -71.5 10 t-77 36.5t-72 67t-52 109t-20.5 155.5v467q0 21 -5 35.5t-16.5 22.5t-19.5 11.5t-24 8.5q-5 1 -7 2zM250 1212q0 26 16.5 43t42.5 17q15 0 31.5 -10t25.5 -19.5t25 -28.5l109 -124q53 -63 49 -68q-5 -5 -65 25t-118 63l-57 33q-59 28 -59 69z" />
<glyph unicode="&#xfa;" horiz-adv-x="956" d="M18 909l187 49v-593q0 -130 61.5 -208.5t163.5 -78.5q40 0 72 6.5t65 26t48 30.5t53 43q3 2 5 3.5t4.5 3.5t4.5 4v634q0 54 -44 71q-5 2 -28 9l185 49v-823q0 -96 82 -106l-127 -45q-24 18 -31.5 24.5t-19 23.5t-14.5 39t-3 58q-126 -145 -299 -145q-35 0 -71.5 10 t-77 36.5t-72 67t-52 109t-20.5 155.5v467q0 21 -5 35.5t-16.5 22.5t-19.5 11.5t-24 8.5q-5 1 -7 2zM332 1022q-4 4 35 52t81 94l41 46q43 58 82 58q25 0 42.5 -17t17.5 -43q0 -37 -62 -69l-148 -83q-83 -44 -89 -38z" />
<glyph unicode="&#xfb;" horiz-adv-x="956" d="M18 909l187 49v-593q0 -130 61.5 -208.5t163.5 -78.5q40 0 72 6.5t65 26t48 30.5t53 43q3 2 5 3.5t4.5 3.5t4.5 4v634q0 54 -44 71q-5 2 -28 9l185 49v-823q0 -96 82 -106l-127 -45q-24 18 -31.5 24.5t-19 23.5t-14.5 39t-3 58q-126 -145 -299 -145q-35 0 -71.5 10 t-77 36.5t-72 67t-52 109t-20.5 155.5v467q0 21 -5 35.5t-16.5 22.5t-19.5 11.5t-24 8.5q-5 1 -7 2zM170 1022q-7 7 128.5 128.5t145.5 121.5q12 0 146.5 -121.5t128.5 -128.5q-5 -5 -74 27.5t-135 68.5l-66 35l-173 -90q-95 -47 -101 -41z" />
<glyph unicode="&#xfc;" horiz-adv-x="956" d="M18 909l187 49v-593q0 -130 61.5 -208.5t163.5 -78.5q40 0 72 6.5t65 26t48 30.5t53 43q3 2 5 3.5t4.5 3.5t4.5 4v634q0 54 -44 71q-5 2 -28 9l185 49v-823q0 -96 82 -106l-127 -45q-24 18 -31.5 24.5t-19 23.5t-14.5 39t-3 58q-126 -145 -299 -145q-35 0 -71.5 10 t-77 36.5t-72 67t-52 109t-20.5 155.5v467q0 21 -5 35.5t-16.5 22.5t-19.5 11.5t-24 8.5q-5 1 -7 2zM236 1143q0 31 21 52.5t52 21.5q32 0 54 -21.5t22 -52.5q0 -32 -22.5 -54t-53.5 -22q-32 0 -52.5 21.5t-20.5 54.5zM500 1143q0 31 21.5 52.5t53.5 21.5q31 0 52.5 -21.5 t21.5 -52.5q0 -32 -21.5 -54t-52.5 -22q-32 0 -53.5 22t-21.5 54z" />
<glyph unicode="&#xfd;" horiz-adv-x="739" d="M-82 934h291q-48 -18 -59 -30q-25 -27 -5 -83l226 -631q169 379 264 631q34 93 -66 113h248q-40 -21 -63.5 -40t-34.5 -48q-42 -104 -249.5 -578t-322.5 -755h-159q23 12 41.5 25.5t28.5 21t22.5 25l15 21t15 28t14.5 28.5q37 72 186 389l-295 795q-8 21 -14.5 34t-17 22 t-15 11.5t-23.5 9.5t-28 11zM340 1022q-4 4 36 52t82 94l42 46q43 58 82 58q25 0 42 -17t17 -43q0 -37 -61 -69l-150 -84q-84 -43 -90 -37z" />
<glyph unicode="&#xfe;" horiz-adv-x="964" d="M33 1360l178 49v-590q34 47 116 93t171 46q49 0 99.5 -16t103 -53t93 -91.5t66 -139t25.5 -187.5q0 -62 -17 -127.5t-54 -130t-88.5 -115.5t-128 -82.5t-165.5 -31.5q-123 0 -219 49v-422q0 -31 12.5 -45.5t42.5 -28.5h-221q29 14 41 28.5t12 45.5v1669q0 22 -4.5 37 t-17.5 23.5t-19.5 11t-25.5 8.5zM213 158q89 -119 215 -119q147 0 237.5 113.5t90.5 318.5q0 96 -22 170.5t-55 116t-76.5 67.5t-79.5 34.5t-72 8.5q-68 0 -135 -35.5t-103 -82.5v-592z" />
<glyph unicode="&#xff;" horiz-adv-x="739" d="M-104 934h290q-47 -18 -59 -30q-24 -27 -4 -83l225 -631q169 379 264 631q34 93 -65 113h248q-41 -21 -64.5 -40t-34.5 -48q-42 -105 -249 -579t-322 -754h-160q23 12 41.5 25.5t28.5 21t22.5 25l15 21t15 28t14.5 28.5q48 92 187 389l-295 795q-8 21 -14.5 34t-17 22 t-15 11.5t-23.5 9.5t-28 11zM156 1143q0 31 21.5 52.5t53.5 21.5q31 0 52.5 -21.5t21.5 -52.5q0 -32 -22.5 -54t-53.5 -22q-32 0 -52.5 21.5t-20.5 54.5zM420 1143q0 31 22 52.5t54 21.5q31 0 52 -21.5t21 -52.5q0 -32 -21 -54t-52 -22q-32 0 -54 22t-22 54z" />
<glyph unicode="&#x152;" horiz-adv-x="1736" d="M16 690q0 95 31 193.5t94 191t150 165.5t208.5 117t258.5 44q80 0 153 -8h703v-142q-14 25 -55 47t-82 23q-115 3 -214 3t-141 -2l-41 -1v-512h357q20 0 41.5 18.5t29.5 38.5v-182q-8 21 -29 39t-42 18h-357v-655q120 -16 209 -16h12h88t70 2t61.5 5t47 9t42 15.5 t31.5 23t30.5 31.5t25.5 43l-35 -199h-754q-64 -14 -153 -14q-142 0 -275.5 52t-236.5 142.5t-165.5 224t-62.5 285.5zM166 719q0 -132 35 -243t93 -186.5t134 -128.5t156 -77.5t161 -24.5q207 0 207 179v927q0 50 -16 84t-46 51.5t-63.5 24t-78.5 6.5q-124 0 -231 -43 t-184.5 -120.5t-122 -193.5t-44.5 -255z" />
<glyph unicode="&#x153;" horiz-adv-x="1617" d="M16 479q0 85 30 169.5t82.5 153.5t134.5 112.5t177 43.5q71 0 129 -18.5t93.5 -45.5t61.5 -54t45.5 -45.5t33.5 -18.5t36 18.5t51 45.5t67.5 54t99 45.5t131.5 18.5q57 0 116 -23t113 -68.5t88.5 -126t34.5 -183.5h-674q0 -10 -1 -37t-1 -39q0 -184 88 -292.5t252 -108.5 q103 0 205 73t133 154q-11 -129 -116 -226t-250 -97q-55 0 -103.5 11t-81.5 28t-61 38t-47.5 42t-35 38t-29 28t-25.5 11q-13 0 -33 -20t-47 -49t-63 -58t-93 -49t-125 -20q-84 0 -154.5 30t-118 79.5t-80.5 114.5t-48 133.5t-15 137.5zM143 477q0 -80 17 -155t50.5 -138.5 t91 -102t130.5 -38.5q74 0 132.5 38t93.5 100.5t53 136.5t18 153q0 63 -10 123.5t-33 117t-55.5 98.5t-82 67.5t-108.5 25.5q-73 0 -131.5 -37.5t-93.5 -99.5t-53.5 -136t-18.5 -153zM872 610h537q0 82 -21 141t-57.5 91t-79 46.5t-92.5 14.5q-64 0 -116 -24.5t-85.5 -67.5 t-54.5 -93t-31 -108z" />
<glyph unicode="&#x178;" horiz-adv-x="907" d="M-133 1393h332q-17 -7 -21.5 -8.5t-17.5 -8.5t-15.5 -12l-7.5 -15t-2 -20.5t9 -26.5t18 -36l309 -512l283 540q17 32 16.5 51t-12.5 28t-41 20h229q-45 -22 -68.5 -42.5t-43.5 -56.5l-330 -622v-580q0 -58 71 -92h-284q74 36 74 92v574l-379 628q-20 34 -46 54.5 t-73 44.5zM242 1559q0 31 22 52t53 21t53.5 -21.5t22.5 -51.5q0 -32 -23 -54t-55 -22q-31 0 -52 22t-21 54zM508 1559q0 31 21.5 52t52.5 21q32 0 53.5 -21t21.5 -52q0 -32 -21.5 -54t-53.5 -22q-31 0 -52.5 22t-21.5 54z" />
<glyph unicode="&#x2c6;" horiz-adv-x="704" d="M8 1092q0 64 21 118t54.5 89.5t76.5 60.5t85 36t81 11q102 0 176.5 -58.5t109.5 -150t35 -203.5q0 -122 -52 -240.5t-143.5 -196t-195.5 -77.5q-70 0 -115.5 23t-62.5 57q30 -17 43 -22.5t38.5 -10t65.5 -4.5q66 0 124 37t96 94.5t61.5 122t28.5 125.5 q-71 -100 -238 -100q-48 0 -97.5 19t-93 53.5t-71 91.5t-27.5 125zM106 1114q0 -22 5 -50.5t20 -67.5t38 -70.5t64.5 -53.5t94.5 -22q100 0 160.5 71t60.5 169q0 118 -66 194t-155 76q-45 0 -81.5 -12t-59 -29.5t-39.5 -44t-24.5 -48t-12 -48t-5 -38.5t-0.5 -26z" />
<glyph unicode="&#x2dc;" horiz-adv-x="813" d="M92 1075q6 29 72.5 79t130.5 50q29 0 105 -30.5t104 -30.5q29 0 53.5 10.5t34.5 21.5l10 11l39 -15q-4 -4 -10.5 -11.5t-28 -26.5t-43 -33.5t-52 -26.5t-58.5 -12q-40 0 -83.5 17.5t-77.5 34.5t-50 17q-25 0 -52 -15t-41 -31l-14 -15z" />
<glyph unicode="&#x2000;" horiz-adv-x="859" />
<glyph unicode="&#x2001;" horiz-adv-x="1718" />
<glyph unicode="&#x2002;" horiz-adv-x="859" />
<glyph unicode="&#x2003;" horiz-adv-x="1718" />
<glyph unicode="&#x2004;" horiz-adv-x="572" />
<glyph unicode="&#x2005;" horiz-adv-x="429" />
<glyph unicode="&#x2006;" horiz-adv-x="286" />
<glyph unicode="&#x2007;" horiz-adv-x="286" />
<glyph unicode="&#x2008;" horiz-adv-x="214" />
<glyph unicode="&#x2009;" horiz-adv-x="343" />
<glyph unicode="&#x200a;" horiz-adv-x="95" />
<glyph unicode="&#x2010;" horiz-adv-x="468" d="M61 487v91h347v-91h-347z" />
<glyph unicode="&#x2011;" horiz-adv-x="468" d="M61 487v91h347v-91h-347z" />
<glyph unicode="&#x2012;" horiz-adv-x="468" d="M61 487v91h347v-91h-347z" />
<glyph unicode="&#x2013;" horiz-adv-x="745" d="M82 637v135h582v-135h-582z" />
<glyph unicode="&#x2014;" horiz-adv-x="1265" d="M61 500v65h1143v-65h-1143z" />
<glyph unicode="&#x2018;" horiz-adv-x="278" d="M29 1137q0 104 45.5 191.5t89.5 101.5q8 4 9 -4q2 -6 -5 -8q-1 -1 -2 -1q-20 -7 -46 -81t-26 -158q8 8 25 8q32 0 54 -21.5t22 -52.5q0 -32 -22 -54t-54 -22q-36 0 -63 29.5t-27 71.5z" />
<glyph unicode="&#x2019;" horiz-adv-x="278" d="M23 1333q0 32 21.5 54t53.5 22q36 0 63 -29t27 -71q0 -104 -45.5 -191.5t-89.5 -101.5q-7 -3 -9.5 3t7.5 9q20 7 46 81.5t26 158.5q-8 -8 -25 -8q-32 0 -53.5 21t-21.5 52z" />
<glyph unicode="&#x201a;" horiz-adv-x="278" d="M72 66q0 32 21.5 53.5t53.5 21.5q36 0 63.5 -29t27.5 -71q0 -104 -46 -191.5t-90 -101.5q-7 -3 -9.5 3t7.5 9q20 7 46 81.5t26 158.5q-8 -8 -25 -8q-32 0 -53.5 21.5t-21.5 52.5z" />
<glyph unicode="&#x201c;" horiz-adv-x="466" d="M29 1137q0 104 45.5 191.5t89.5 101.5q8 4 9 -4q2 -6 -5 -8q-1 -1 -2 -1q-20 -7 -46 -81t-26 -158q8 8 25 8q32 0 54 -21.5t22 -52.5q0 -32 -22 -54t-54 -22q-36 0 -63 29.5t-27 71.5zM217 1137q0 104 45.5 191.5t89.5 101.5q8 4 9 -4q2 -6 -5 -8q-1 -1 -2 -1 q-20 -7 -45.5 -81t-25.5 -158q8 8 24 8q32 0 54 -21.5t22 -52.5q0 -32 -22 -54t-54 -22q-36 0 -63 29.5t-27 71.5z" />
<glyph unicode="&#x201d;" horiz-adv-x="466" d="M23 1333q0 32 21.5 54t53.5 22q36 0 63 -29t27 -71q0 -104 -45.5 -191.5t-89.5 -101.5q-7 -3 -9.5 3t7.5 9q20 7 46 81.5t26 158.5q-8 -8 -25 -8q-32 0 -53.5 21t-21.5 52zM215 1333q0 32 22 54t54 22q36 0 63 -29t27 -71q0 -104 -45.5 -191.5t-89.5 -101.5q-7 -3 -9.5 3 t7.5 9q20 7 45.5 81.5t25.5 158.5q-8 -8 -24 -8q-32 0 -54 21t-22 52z" />
<glyph unicode="&#x201e;" horiz-adv-x="544" d="M100 66q0 32 22 53.5t54 21.5q36 0 63 -29t27 -71q0 -104 -45.5 -191.5t-89.5 -101.5q-7 -3 -9.5 3t7.5 9q20 7 46 81.5t26 158.5q-8 -8 -25 -8q-32 0 -54 21.5t-22 52.5zM297 66q0 32 22 53.5t54 21.5q36 0 63 -29t27 -71q0 -104 -45.5 -191.5t-89.5 -101.5 q-7 -3 -9.5 3t7.5 9q20 7 45.5 81.5t25.5 158.5q-8 -8 -24 -8q-32 0 -54 21.5t-22 52.5z" />
<glyph unicode="&#x2022;" horiz-adv-x="860" d="M0 657q0 158 110.5 268.5t268.5 110.5t268.5 -110.5t110.5 -268.5t-110 -267t-269 -109t-269 109t-110 267z" />
<glyph unicode="&#x2026;" horiz-adv-x="1036" d="M55 66q0 32 22 53.5t54 21.5q31 0 52.5 -21.5t21.5 -53.5q0 -31 -21.5 -52.5t-52.5 -21.5q-32 0 -54 21.5t-22 52.5zM422 66q0 32 21.5 53.5t52.5 21.5q32 0 53.5 -21.5t21.5 -53.5q0 -31 -21.5 -52.5t-53.5 -21.5q-31 0 -52.5 21.5t-21.5 52.5zM770 66q0 32 21.5 53.5 t52.5 21.5q32 0 54 -21.5t22 -53.5q0 -31 -22 -52.5t-54 -21.5q-31 0 -52.5 21.5t-21.5 52.5z" />
<glyph unicode="&#x202f;" horiz-adv-x="343" />
<glyph unicode="&#x2039;" horiz-adv-x="708" d="M156 504v162q21 0 55 9.5t87 36t108 66t120 107.5t121 153q-8 -28 -26 -72t-54.5 -107t-81 -118t-109.5 -99t-134 -56q70 -16 134.5 -62t109 -100.5t81 -116.5t55 -105.5t25.5 -70.5q-56 83 -121.5 151t-121 107.5t-108.5 67t-87 37.5t-53 10z" />
<glyph unicode="&#x203a;" horiz-adv-x="708" d="M63 131q7 27 25.5 70.5t55.5 105.5t81.5 116.5t109 100.5t134.5 62q-69 12 -134 56t-109.5 99t-81.5 118t-55 107t-26 72q56 -85 121 -153t120.5 -107.5t108.5 -66t87 -36t55 -9.5v-162q-19 0 -53 -10t-87.5 -37.5t-109 -67t-121 -107.5t-121.5 -151z" />
<glyph unicode="&#x205f;" horiz-adv-x="429" />
<glyph unicode="&#x2122;" horiz-adv-x="624" d="M66 1364v29h196v-29h-78v-410h-37v410h-81zM319 954v439h60l88 -369l96 369h58v-439h-31v414l-107 -414h-30l-101 414v-414h-33z" />
<glyph unicode="&#xe000;" horiz-adv-x="931" d="M0 0v932h932v-932h-932z" />
<glyph unicode="&#xfb01;" horiz-adv-x="845" d="M2 872v62h111v190q0 131 68.5 208t183.5 77q51 0 83 -11.5t70 -41.5v-160q-11 60 -54.5 111t-92.5 51q-146 0 -146 -201v-223h326l135 22v-882q0 -32 11.5 -46t41.5 -30h-221q21 11 30.5 17.5t17 21t7.5 37.5v721q0 43 -16 60t-51 17h-281v-796q0 -32 13 -47t43 -29h-222 q29 14 41.5 29t12.5 47v796h-111z" />
<glyph unicode="&#xfb02;" horiz-adv-x="845" d="M2 874v62h111v188q0 126 86.5 205.5t206.5 79.5q81 0 151 -13.5t99 -26.5l30 -13v-1280q0 -32 13 -47t42 -29h-221q29 14 41 29t12 47v798h-348v-798q0 -32 13 -47t43 -29h-222q29 14 41.5 29t12.5 47v798h-111zM225 936h348v334q0 51 -37 69.5t-124 18.5q-39 0 -72 -15 t-53.5 -37.5t-35 -50.5t-20.5 -53t-6 -45v-221z" />
</font>
</defs>
</svg>
